<mxfile host="app.diagrams.net" modified="2023-10-11T10:45:17.501Z" agent="Mozilla/5.0 (X11; Linux x86_64; rv:109.0) Gecko/20100101 Firefox/118.0" etag="OUh9dSakLdovDbHVPT8x" version="22.0.4" type="device">
  <diagram name="Page-1" id="4lBCx5LUApBNJpp5xfdY">
    <mxGraphModel dx="835" dy="511" grid="1" gridSize="5" guides="1" tooltips="1" connect="1" arrows="1" fold="1" page="1" pageScale="1" pageWidth="827" pageHeight="1169" math="0" shadow="0">
      <root>
        <mxCell id="0" />
        <mxCell id="1" parent="0" />
        <mxCell id="Jmizhj2TeELe9FxtLMLf-2" style="edgeStyle=orthogonalEdgeStyle;rounded=0;orthogonalLoop=1;jettySize=auto;html=1;curved=1;entryX=0;entryY=0.5;entryDx=0;entryDy=0;" parent="1" source="Jmizhj2TeELe9FxtLMLf-1" target="Jmizhj2TeELe9FxtLMLf-17" edge="1">
          <mxGeometry relative="1" as="geometry">
            <mxPoint x="580.0000000000016" y="319" as="targetPoint" />
            <Array as="points">
              <mxPoint x="415" y="309" />
            </Array>
          </mxGeometry>
        </mxCell>
        <mxCell id="Jmizhj2TeELe9FxtLMLf-5" value="+" style="edgeLabel;html=1;align=center;verticalAlign=middle;resizable=0;points=[];fontSize=15;" parent="Jmizhj2TeELe9FxtLMLf-2" vertex="1" connectable="0">
          <mxGeometry x="-0.1402" relative="1" as="geometry">
            <mxPoint x="137" y="-15" as="offset" />
          </mxGeometry>
        </mxCell>
        <mxCell id="Jmizhj2TeELe9FxtLMLf-8" style="edgeStyle=orthogonalEdgeStyle;rounded=0;orthogonalLoop=1;jettySize=auto;html=1;entryX=-0.05;entryY=0.373;entryDx=0;entryDy=0;curved=1;entryPerimeter=0;" parent="1" source="Jmizhj2TeELe9FxtLMLf-1" target="cOMLW2albzwi6cBCAeZk-1" edge="1">
          <mxGeometry relative="1" as="geometry">
            <Array as="points">
              <mxPoint x="424" y="363" />
            </Array>
            <mxPoint x="580" y="379" as="targetPoint" />
          </mxGeometry>
        </mxCell>
        <mxCell id="Jmizhj2TeELe9FxtLMLf-9" value="@" style="edgeLabel;html=1;align=center;verticalAlign=middle;resizable=0;points=[];fontSize=14;" parent="Jmizhj2TeELe9FxtLMLf-8" vertex="1" connectable="0">
          <mxGeometry x="0.1625" y="5" relative="1" as="geometry">
            <mxPoint x="58" y="-10" as="offset" />
          </mxGeometry>
        </mxCell>
        <mxCell id="Jmizhj2TeELe9FxtLMLf-18" style="edgeStyle=orthogonalEdgeStyle;shape=connector;curved=1;rounded=0;orthogonalLoop=1;jettySize=auto;html=1;exitX=0.917;exitY=0.757;exitDx=0;exitDy=0;labelBackgroundColor=default;strokeColor=default;align=center;verticalAlign=middle;fontFamily=Helvetica;fontSize=11;fontColor=default;endArrow=classic;entryX=0.5;entryY=0;entryDx=0;entryDy=0;exitPerimeter=0;" parent="1" source="Jmizhj2TeELe9FxtLMLf-1" target="Jmizhj2TeELe9FxtLMLf-23" edge="1">
          <mxGeometry relative="1" as="geometry">
            <mxPoint x="430" y="604" as="targetPoint" />
            <Array as="points">
              <mxPoint x="455" y="472" />
            </Array>
          </mxGeometry>
        </mxCell>
        <mxCell id="Jmizhj2TeELe9FxtLMLf-20" value="&quot;" style="edgeLabel;html=1;align=center;verticalAlign=middle;resizable=0;points=[];fontSize=11;fontFamily=Helvetica;fontColor=default;" parent="Jmizhj2TeELe9FxtLMLf-18" vertex="1" connectable="0">
          <mxGeometry x="0.1382" y="-13" relative="1" as="geometry">
            <mxPoint x="18" y="31" as="offset" />
          </mxGeometry>
        </mxCell>
        <mxCell id="cOMLW2albzwi6cBCAeZk-4" style="edgeStyle=orthogonalEdgeStyle;rounded=0;orthogonalLoop=1;jettySize=auto;html=1;entryX=1.041;entryY=0.421;entryDx=0;entryDy=0;entryPerimeter=0;curved=1;exitX=0.5;exitY=1;exitDx=0;exitDy=0;" parent="1" source="Jmizhj2TeELe9FxtLMLf-1" target="cOMLW2albzwi6cBCAeZk-5" edge="1">
          <mxGeometry relative="1" as="geometry">
            <mxPoint x="220" y="459" as="targetPoint" />
            <Array as="points">
              <mxPoint x="415" y="615" />
            </Array>
          </mxGeometry>
        </mxCell>
        <mxCell id="cOMLW2albzwi6cBCAeZk-7" value="&lt;div style=&quot;font-size: 14px;&quot;&gt;a-z, A-z, _&lt;/div&gt;" style="edgeLabel;html=1;align=center;verticalAlign=middle;resizable=0;points=[];fontSize=14;fontFamily=Helvetica;fontColor=default;" parent="cOMLW2albzwi6cBCAeZk-4" vertex="1" connectable="0">
          <mxGeometry x="0.0643" y="-3" relative="1" as="geometry">
            <mxPoint x="-85" y="-18" as="offset" />
          </mxGeometry>
        </mxCell>
        <mxCell id="1_MaRXWsVEtTQD-sm3cn-47" style="edgeStyle=orthogonalEdgeStyle;shape=connector;curved=1;rounded=0;orthogonalLoop=1;jettySize=auto;html=1;entryX=0;entryY=0.5;entryDx=0;entryDy=0;labelBackgroundColor=default;strokeColor=default;align=center;verticalAlign=middle;fontFamily=Helvetica;fontSize=11;fontColor=default;endArrow=classic;exitX=0.967;exitY=0.657;exitDx=0;exitDy=0;exitPerimeter=0;" parent="1" source="Jmizhj2TeELe9FxtLMLf-1" target="1_MaRXWsVEtTQD-sm3cn-33" edge="1">
          <mxGeometry relative="1" as="geometry" />
        </mxCell>
        <mxCell id="1_MaRXWsVEtTQD-sm3cn-48" value=":" style="edgeLabel;html=1;align=center;verticalAlign=middle;resizable=0;points=[];fontSize=11;fontFamily=Helvetica;fontColor=default;" parent="1_MaRXWsVEtTQD-sm3cn-47" vertex="1" connectable="0">
          <mxGeometry x="0.3946" y="20" relative="1" as="geometry">
            <mxPoint x="15" y="-2" as="offset" />
          </mxGeometry>
        </mxCell>
        <mxCell id="1_MaRXWsVEtTQD-sm3cn-102" style="edgeStyle=orthogonalEdgeStyle;shape=connector;curved=1;rounded=0;orthogonalLoop=1;jettySize=auto;html=1;entryX=0.5;entryY=1;entryDx=0;entryDy=0;labelBackgroundColor=default;strokeColor=default;align=center;verticalAlign=middle;fontFamily=Helvetica;fontSize=11;fontColor=default;endArrow=classic;" parent="1" source="Jmizhj2TeELe9FxtLMLf-1" target="1_MaRXWsVEtTQD-sm3cn-96" edge="1">
          <mxGeometry relative="1" as="geometry">
            <Array as="points">
              <mxPoint x="400" y="494" />
              <mxPoint x="105" y="494" />
            </Array>
          </mxGeometry>
        </mxCell>
        <mxCell id="1_MaRXWsVEtTQD-sm3cn-120" value="&lt;font style=&quot;font-size: 14px;&quot;&gt;&amp;gt;&lt;/font&gt;" style="edgeLabel;html=1;align=center;verticalAlign=middle;resizable=0;points=[];fontSize=11;fontFamily=Helvetica;fontColor=default;" parent="1_MaRXWsVEtTQD-sm3cn-102" vertex="1" connectable="0">
          <mxGeometry x="0.5387" y="-19" relative="1" as="geometry">
            <mxPoint y="-16" as="offset" />
          </mxGeometry>
        </mxCell>
        <mxCell id="1_MaRXWsVEtTQD-sm3cn-127" style="edgeStyle=orthogonalEdgeStyle;shape=connector;curved=1;rounded=0;orthogonalLoop=1;jettySize=auto;html=1;exitX=0.617;exitY=1.015;exitDx=0;exitDy=0;entryX=1;entryY=0.5;entryDx=0;entryDy=0;labelBackgroundColor=default;strokeColor=default;align=center;verticalAlign=middle;fontFamily=Helvetica;fontSize=11;fontColor=default;endArrow=classic;exitPerimeter=0;" parent="1" source="Jmizhj2TeELe9FxtLMLf-1" target="1_MaRXWsVEtTQD-sm3cn-126" edge="1">
          <mxGeometry relative="1" as="geometry">
            <Array as="points">
              <mxPoint x="421" y="689" />
            </Array>
          </mxGeometry>
        </mxCell>
        <mxCell id="1_MaRXWsVEtTQD-sm3cn-130" value="0-9" style="edgeLabel;html=1;align=center;verticalAlign=middle;resizable=0;points=[];fontSize=14;fontFamily=Helvetica;fontColor=default;" parent="1_MaRXWsVEtTQD-sm3cn-127" vertex="1" connectable="0">
          <mxGeometry x="0.8723" y="-3" relative="1" as="geometry">
            <mxPoint y="-12" as="offset" />
          </mxGeometry>
        </mxCell>
        <mxCell id="UnipSPoBlDGwuC0cnpaX-3" style="edgeStyle=orthogonalEdgeStyle;rounded=0;orthogonalLoop=1;jettySize=auto;html=1;exitX=0.22;exitY=0.06;exitDx=0;exitDy=0;curved=1;exitPerimeter=0;" parent="1" source="Jmizhj2TeELe9FxtLMLf-1" target="UnipSPoBlDGwuC0cnpaX-2" edge="1">
          <mxGeometry relative="1" as="geometry" />
        </mxCell>
        <mxCell id="UnipSPoBlDGwuC0cnpaX-4" value="," style="edgeLabel;html=1;align=center;verticalAlign=middle;resizable=0;points=[];fontSize=14;" parent="UnipSPoBlDGwuC0cnpaX-3" vertex="1" connectable="0">
          <mxGeometry x="0.1948" y="1" relative="1" as="geometry">
            <mxPoint x="-4" y="-20" as="offset" />
          </mxGeometry>
        </mxCell>
        <mxCell id="Jmizhj2TeELe9FxtLMLf-1" value="S" style="ellipse;whiteSpace=wrap;html=1;aspect=fixed;" parent="1" vertex="1">
          <mxGeometry x="390" y="434" width="50" height="50" as="geometry" />
        </mxCell>
        <mxCell id="Jmizhj2TeELe9FxtLMLf-17" value="F7" style="ellipse;shape=doubleEllipse;whiteSpace=wrap;html=1;aspect=fixed;fontFamily=Helvetica;fontSize=11;fontColor=default;" parent="1" vertex="1">
          <mxGeometry x="680" y="284" width="50" height="50" as="geometry" />
        </mxCell>
        <mxCell id="Jmizhj2TeELe9FxtLMLf-31" style="edgeStyle=orthogonalEdgeStyle;shape=connector;curved=1;rounded=0;orthogonalLoop=1;jettySize=auto;html=1;exitX=0.74;exitY=0.953;exitDx=0;exitDy=0;labelBackgroundColor=default;strokeColor=default;align=center;verticalAlign=middle;fontFamily=Helvetica;fontSize=11;fontColor=default;endArrow=classic;entryX=0;entryY=0.5;entryDx=0;entryDy=0;exitPerimeter=0;" parent="1" source="Jmizhj2TeELe9FxtLMLf-19" target="Jmizhj2TeELe9FxtLMLf-32" edge="1">
          <mxGeometry relative="1" as="geometry">
            <mxPoint x="410" y="964" as="targetPoint" />
            <Array as="points">
              <mxPoint x="347" y="819" />
            </Array>
          </mxGeometry>
        </mxCell>
        <mxCell id="Jmizhj2TeELe9FxtLMLf-34" value="&quot;" style="edgeLabel;html=1;align=center;verticalAlign=middle;resizable=0;points=[];fontSize=14;fontFamily=Helvetica;fontColor=default;" parent="Jmizhj2TeELe9FxtLMLf-31" vertex="1" connectable="0">
          <mxGeometry x="0.303" y="11" relative="1" as="geometry">
            <mxPoint x="27" as="offset" />
          </mxGeometry>
        </mxCell>
        <mxCell id="Jmizhj2TeELe9FxtLMLf-19" value="Q7" style="ellipse;whiteSpace=wrap;html=1;aspect=fixed;" parent="1" vertex="1">
          <mxGeometry x="310" y="724" width="50" height="50" as="geometry" />
        </mxCell>
        <mxCell id="Jmizhj2TeELe9FxtLMLf-26" style="edgeStyle=orthogonalEdgeStyle;shape=connector;curved=1;rounded=0;orthogonalLoop=1;jettySize=auto;html=1;labelBackgroundColor=default;strokeColor=default;align=center;verticalAlign=middle;fontFamily=Helvetica;fontSize=11;fontColor=default;endArrow=classic;entryX=0;entryY=0.5;entryDx=0;entryDy=0;" parent="1" source="Jmizhj2TeELe9FxtLMLf-23" target="Jmizhj2TeELe9FxtLMLf-27" edge="1">
          <mxGeometry relative="1" as="geometry">
            <mxPoint x="560" y="644" as="targetPoint" />
          </mxGeometry>
        </mxCell>
        <mxCell id="Jmizhj2TeELe9FxtLMLf-28" value="&quot;" style="edgeLabel;html=1;align=center;verticalAlign=middle;resizable=0;points=[];fontSize=11;fontFamily=Helvetica;fontColor=default;" parent="Jmizhj2TeELe9FxtLMLf-26" vertex="1" connectable="0">
          <mxGeometry x="0.1172" y="-2" relative="1" as="geometry">
            <mxPoint x="7" as="offset" />
          </mxGeometry>
        </mxCell>
        <mxCell id="Jmizhj2TeELe9FxtLMLf-23" value="Q6" style="ellipse;whiteSpace=wrap;html=1;aspect=fixed;" parent="1" vertex="1">
          <mxGeometry x="430" y="584" width="50" height="50" as="geometry" />
        </mxCell>
        <mxCell id="Jmizhj2TeELe9FxtLMLf-24" style="edgeStyle=orthogonalEdgeStyle;shape=connector;curved=1;rounded=0;orthogonalLoop=1;jettySize=auto;html=1;entryX=0.578;entryY=-0.028;entryDx=0;entryDy=0;entryPerimeter=0;labelBackgroundColor=default;strokeColor=default;align=center;verticalAlign=middle;fontFamily=Helvetica;fontSize=11;fontColor=default;endArrow=classic;exitX=0.016;exitY=0.687;exitDx=0;exitDy=0;exitPerimeter=0;" parent="1" source="Jmizhj2TeELe9FxtLMLf-23" target="Jmizhj2TeELe9FxtLMLf-19" edge="1">
          <mxGeometry relative="1" as="geometry">
            <Array as="points">
              <mxPoint x="400" y="618" />
              <mxPoint x="400" y="674" />
              <mxPoint x="339" y="674" />
            </Array>
          </mxGeometry>
        </mxCell>
        <mxCell id="Jmizhj2TeELe9FxtLMLf-25" value="(Σ &amp;gt;= 0x20) - {\, EOL, &quot;}" style="edgeLabel;html=1;align=center;verticalAlign=middle;resizable=0;points=[];fontSize=11;fontFamily=Helvetica;fontColor=default;" parent="Jmizhj2TeELe9FxtLMLf-24" vertex="1" connectable="0">
          <mxGeometry x="0.0347" y="2" relative="1" as="geometry">
            <mxPoint x="25" y="13" as="offset" />
          </mxGeometry>
        </mxCell>
        <mxCell id="Jmizhj2TeELe9FxtLMLf-33" style="edgeStyle=orthogonalEdgeStyle;shape=connector;curved=1;rounded=0;orthogonalLoop=1;jettySize=auto;html=1;entryX=1;entryY=0.5;entryDx=0;entryDy=0;labelBackgroundColor=default;strokeColor=default;align=center;verticalAlign=middle;fontFamily=Helvetica;fontSize=11;fontColor=default;endArrow=classic;exitX=0.5;exitY=1;exitDx=0;exitDy=0;" parent="1" source="Jmizhj2TeELe9FxtLMLf-27" target="Jmizhj2TeELe9FxtLMLf-32" edge="1">
          <mxGeometry relative="1" as="geometry">
            <Array as="points">
              <mxPoint x="545" y="819" />
            </Array>
          </mxGeometry>
        </mxCell>
        <mxCell id="KZ-Oyi-OiSotZPvz-CzS-11" style="edgeStyle=orthogonalEdgeStyle;shape=connector;curved=1;rounded=0;orthogonalLoop=1;jettySize=auto;html=1;entryX=0;entryY=0.5;entryDx=0;entryDy=0;labelBackgroundColor=default;strokeColor=default;align=center;verticalAlign=middle;fontFamily=Helvetica;fontSize=11;fontColor=default;endArrow=classic;" parent="1" source="Jmizhj2TeELe9FxtLMLf-27" target="KZ-Oyi-OiSotZPvz-CzS-2" edge="1">
          <mxGeometry relative="1" as="geometry" />
        </mxCell>
        <mxCell id="KZ-Oyi-OiSotZPvz-CzS-12" value="&quot;" style="edgeLabel;html=1;align=center;verticalAlign=middle;resizable=0;points=[];fontSize=14;fontFamily=Helvetica;fontColor=default;" parent="KZ-Oyi-OiSotZPvz-CzS-11" vertex="1" connectable="0">
          <mxGeometry x="0.166" y="1" relative="1" as="geometry">
            <mxPoint x="-8" y="12" as="offset" />
          </mxGeometry>
        </mxCell>
        <mxCell id="Jmizhj2TeELe9FxtLMLf-27" value="Q13" style="ellipse;whiteSpace=wrap;html=1;aspect=fixed;" parent="1" vertex="1">
          <mxGeometry x="520" y="660" width="50" height="50" as="geometry" />
        </mxCell>
        <mxCell id="1_MaRXWsVEtTQD-sm3cn-188" style="edgeStyle=orthogonalEdgeStyle;shape=connector;curved=1;rounded=0;orthogonalLoop=1;jettySize=auto;html=1;labelBackgroundColor=default;strokeColor=default;align=center;verticalAlign=middle;fontFamily=Helvetica;fontSize=11;fontColor=default;endArrow=classic;" parent="1" source="Jmizhj2TeELe9FxtLMLf-30" target="1_MaRXWsVEtTQD-sm3cn-207" edge="1">
          <mxGeometry relative="1" as="geometry">
            <mxPoint x="705" y="884" as="targetPoint" />
            <Array as="points">
              <mxPoint x="740" y="965" />
            </Array>
          </mxGeometry>
        </mxCell>
        <mxCell id="1_MaRXWsVEtTQD-sm3cn-209" value="\" style="edgeLabel;html=1;align=center;verticalAlign=middle;resizable=0;points=[];fontSize=14;fontFamily=Helvetica;fontColor=default;" parent="1_MaRXWsVEtTQD-sm3cn-188" vertex="1" connectable="0">
          <mxGeometry x="0.0267" relative="1" as="geometry">
            <mxPoint x="-30" y="42" as="offset" />
          </mxGeometry>
        </mxCell>
        <mxCell id="Jmizhj2TeELe9FxtLMLf-30" value="Q15" style="ellipse;whiteSpace=wrap;html=1;aspect=fixed;" parent="1" vertex="1">
          <mxGeometry x="715" y="694" width="50" height="50" as="geometry" />
        </mxCell>
        <mxCell id="Jmizhj2TeELe9FxtLMLf-32" value="F25" style="ellipse;shape=doubleEllipse;whiteSpace=wrap;html=1;aspect=fixed;fontFamily=Helvetica;fontSize=11;fontColor=default;" parent="1" vertex="1">
          <mxGeometry x="455" y="794" width="50" height="50" as="geometry" />
        </mxCell>
        <mxCell id="cOMLW2albzwi6cBCAeZk-1" value="F6" style="ellipse;shape=doubleEllipse;whiteSpace=wrap;html=1;aspect=fixed;fontFamily=Helvetica;fontSize=11;fontColor=default;" parent="1" vertex="1">
          <mxGeometry x="690" y="344" width="50" height="50" as="geometry" />
        </mxCell>
        <mxCell id="cOMLW2albzwi6cBCAeZk-2" value="F5" style="ellipse;shape=doubleEllipse;whiteSpace=wrap;html=1;aspect=fixed;fontFamily=Helvetica;fontSize=11;fontColor=default;" parent="1" vertex="1">
          <mxGeometry x="690" y="404" width="50" height="50" as="geometry" />
        </mxCell>
        <mxCell id="cOMLW2albzwi6cBCAeZk-3" value="F4" style="ellipse;shape=doubleEllipse;whiteSpace=wrap;html=1;aspect=fixed;fontFamily=Helvetica;fontSize=11;fontColor=default;" parent="1" vertex="1">
          <mxGeometry x="680" y="464" width="50" height="50" as="geometry" />
        </mxCell>
        <mxCell id="cOMLW2albzwi6cBCAeZk-9" style="edgeStyle=orthogonalEdgeStyle;shape=connector;curved=1;rounded=0;orthogonalLoop=1;jettySize=auto;html=1;labelBackgroundColor=default;strokeColor=default;align=center;verticalAlign=middle;fontFamily=Helvetica;fontSize=11;fontColor=default;endArrow=classic;entryX=1;entryY=0.5;entryDx=0;entryDy=0;exitX=0.006;exitY=0.641;exitDx=0;exitDy=0;exitPerimeter=0;" parent="1" source="cOMLW2albzwi6cBCAeZk-5" target="cOMLW2albzwi6cBCAeZk-10" edge="1">
          <mxGeometry relative="1" as="geometry">
            <mxPoint x="200" y="607.0999999999999" as="targetPoint" />
            <Array as="points">
              <mxPoint x="230" y="619" />
            </Array>
          </mxGeometry>
        </mxCell>
        <mxCell id="cOMLW2albzwi6cBCAeZk-11" value="Int?, String?, Double?" style="edgeLabel;html=1;align=center;verticalAlign=middle;resizable=0;points=[];fontSize=12;fontFamily=Helvetica;fontColor=default;" parent="cOMLW2albzwi6cBCAeZk-9" vertex="1" connectable="0">
          <mxGeometry x="-0.0236" y="6" relative="1" as="geometry">
            <mxPoint x="-13" y="9" as="offset" />
          </mxGeometry>
        </mxCell>
        <mxCell id="cOMLW2albzwi6cBCAeZk-5" value="F20" style="ellipse;shape=doubleEllipse;whiteSpace=wrap;html=1;aspect=fixed;fontFamily=Helvetica;fontSize=11;fontColor=default;" parent="1" vertex="1">
          <mxGeometry x="230" y="594" width="50" height="50" as="geometry" />
        </mxCell>
        <mxCell id="cOMLW2albzwi6cBCAeZk-6" style="edgeStyle=orthogonalEdgeStyle;shape=connector;curved=1;rounded=0;orthogonalLoop=1;jettySize=auto;html=1;entryX=0.005;entryY=0.351;entryDx=0;entryDy=0;entryPerimeter=0;labelBackgroundColor=default;strokeColor=default;align=center;verticalAlign=middle;fontFamily=Helvetica;fontSize=11;fontColor=default;endArrow=classic;" parent="1" source="cOMLW2albzwi6cBCAeZk-5" target="cOMLW2albzwi6cBCAeZk-5" edge="1">
          <mxGeometry relative="1" as="geometry">
            <Array as="points">
              <mxPoint x="270" y="564" />
              <mxPoint x="230" y="564" />
            </Array>
          </mxGeometry>
        </mxCell>
        <mxCell id="cOMLW2albzwi6cBCAeZk-8" value="&lt;div&gt;a-z, A-Z, 0-9, _&lt;/div&gt;" style="edgeLabel;html=1;align=center;verticalAlign=middle;resizable=0;points=[];fontSize=11;fontFamily=Helvetica;fontColor=default;" parent="cOMLW2albzwi6cBCAeZk-6" vertex="1" connectable="0">
          <mxGeometry x="-0.1936" y="1" relative="1" as="geometry">
            <mxPoint x="-64" y="19" as="offset" />
          </mxGeometry>
        </mxCell>
        <mxCell id="cOMLW2albzwi6cBCAeZk-10" value="F21" style="ellipse;shape=doubleEllipse;whiteSpace=wrap;html=1;aspect=fixed;fontFamily=Helvetica;fontSize=11;fontColor=default;" parent="1" vertex="1">
          <mxGeometry x="15" y="594" width="50" height="50" as="geometry" />
        </mxCell>
        <mxCell id="cOMLW2albzwi6cBCAeZk-16" value="F8" style="ellipse;shape=doubleEllipse;whiteSpace=wrap;html=1;aspect=fixed;fontFamily=Helvetica;fontSize=11;fontColor=default;" parent="1" vertex="1">
          <mxGeometry x="520" y="254" width="50" height="50" as="geometry" />
        </mxCell>
        <mxCell id="cOMLW2albzwi6cBCAeZk-19" value="F9" style="ellipse;shape=doubleEllipse;whiteSpace=wrap;html=1;aspect=fixed;fontFamily=Helvetica;fontSize=11;fontColor=default;" parent="1" vertex="1">
          <mxGeometry x="670" y="210" width="50" height="50" as="geometry" />
        </mxCell>
        <mxCell id="1_MaRXWsVEtTQD-sm3cn-79" style="edgeStyle=orthogonalEdgeStyle;shape=connector;curved=1;rounded=0;orthogonalLoop=1;jettySize=auto;html=1;exitX=0.5;exitY=0;exitDx=0;exitDy=0;entryX=0;entryY=0.5;entryDx=0;entryDy=0;labelBackgroundColor=default;strokeColor=default;align=center;verticalAlign=middle;fontFamily=Helvetica;fontSize=11;fontColor=default;endArrow=classic;" parent="1" source="cOMLW2albzwi6cBCAeZk-22" target="1_MaRXWsVEtTQD-sm3cn-76" edge="1">
          <mxGeometry relative="1" as="geometry" />
        </mxCell>
        <mxCell id="1_MaRXWsVEtTQD-sm3cn-84" value="*" style="edgeLabel;html=1;align=center;verticalAlign=middle;resizable=0;points=[];fontSize=14;fontFamily=Helvetica;fontColor=default;" parent="1_MaRXWsVEtTQD-sm3cn-79" vertex="1" connectable="0">
          <mxGeometry x="-0.26" y="-7" relative="1" as="geometry">
            <mxPoint x="8" y="-13" as="offset" />
          </mxGeometry>
        </mxCell>
        <mxCell id="cOMLW2albzwi6cBCAeZk-22" value="F11" style="ellipse;shape=doubleEllipse;whiteSpace=wrap;html=1;aspect=fixed;fontFamily=Helvetica;fontSize=11;fontColor=default;" parent="1" vertex="1">
          <mxGeometry x="305" y="284" width="50" height="50" as="geometry" />
        </mxCell>
        <mxCell id="cOMLW2albzwi6cBCAeZk-23" style="edgeStyle=orthogonalEdgeStyle;shape=connector;curved=1;rounded=0;orthogonalLoop=1;jettySize=auto;html=1;entryX=0.609;entryY=0.991;entryDx=0;entryDy=0;entryPerimeter=0;labelBackgroundColor=default;strokeColor=default;align=center;verticalAlign=middle;fontFamily=Helvetica;fontSize=11;fontColor=default;endArrow=classic;exitX=0;exitY=0;exitDx=0;exitDy=0;" parent="1" source="Jmizhj2TeELe9FxtLMLf-1" target="cOMLW2albzwi6cBCAeZk-22" edge="1">
          <mxGeometry relative="1" as="geometry" />
        </mxCell>
        <mxCell id="1_MaRXWsVEtTQD-sm3cn-8" value="/" style="edgeLabel;html=1;align=center;verticalAlign=middle;resizable=0;points=[];fontSize=14;fontFamily=Helvetica;fontColor=default;" parent="cOMLW2albzwi6cBCAeZk-23" vertex="1" connectable="0">
          <mxGeometry x="0.4319" y="1" relative="1" as="geometry">
            <mxPoint x="-4" y="-4" as="offset" />
          </mxGeometry>
        </mxCell>
        <mxCell id="cOMLW2albzwi6cBCAeZk-27" value="F3" style="ellipse;shape=doubleEllipse;whiteSpace=wrap;html=1;aspect=fixed;fontFamily=Helvetica;fontSize=11;fontColor=default;" parent="1" vertex="1">
          <mxGeometry x="670" y="524" width="50" height="50" as="geometry" />
        </mxCell>
        <mxCell id="cOMLW2albzwi6cBCAeZk-28" style="edgeStyle=orthogonalEdgeStyle;shape=connector;curved=1;rounded=0;orthogonalLoop=1;jettySize=auto;html=1;exitX=0.997;exitY=0.346;exitDx=0;exitDy=0;entryX=0;entryY=0.4;entryDx=0;entryDy=0;entryPerimeter=0;labelBackgroundColor=default;strokeColor=default;align=center;verticalAlign=middle;fontFamily=Helvetica;fontSize=11;fontColor=default;endArrow=classic;exitPerimeter=0;" parent="1" source="Jmizhj2TeELe9FxtLMLf-1" target="cOMLW2albzwi6cBCAeZk-27" edge="1">
          <mxGeometry relative="1" as="geometry" />
        </mxCell>
        <mxCell id="cOMLW2albzwi6cBCAeZk-29" value="{" style="edgeLabel;html=1;align=center;verticalAlign=middle;resizable=0;points=[];fontSize=11;fontFamily=Helvetica;fontColor=default;" parent="cOMLW2albzwi6cBCAeZk-28" vertex="1" connectable="0">
          <mxGeometry x="0.6218" y="6" relative="1" as="geometry">
            <mxPoint y="-14" as="offset" />
          </mxGeometry>
        </mxCell>
        <mxCell id="1_MaRXWsVEtTQD-sm3cn-26" style="edgeStyle=orthogonalEdgeStyle;shape=connector;curved=1;rounded=0;orthogonalLoop=1;jettySize=auto;html=1;entryX=0.066;entryY=0.243;entryDx=0;entryDy=0;entryPerimeter=0;labelBackgroundColor=default;strokeColor=default;align=center;verticalAlign=middle;fontFamily=Helvetica;fontSize=11;fontColor=default;endArrow=classic;exitX=0.8;exitY=0.1;exitDx=0;exitDy=0;exitPerimeter=0;" parent="1" source="Jmizhj2TeELe9FxtLMLf-1" target="cOMLW2albzwi6cBCAeZk-2" edge="1">
          <mxGeometry relative="1" as="geometry">
            <mxPoint x="431" y="436" as="sourcePoint" />
            <Array as="points">
              <mxPoint x="430" y="416" />
            </Array>
          </mxGeometry>
        </mxCell>
        <mxCell id="1_MaRXWsVEtTQD-sm3cn-27" value="(" style="edgeLabel;html=1;align=center;verticalAlign=middle;resizable=0;points=[];fontSize=11;fontFamily=Helvetica;fontColor=default;" parent="1_MaRXWsVEtTQD-sm3cn-26" vertex="1" connectable="0">
          <mxGeometry x="0.3091" y="2" relative="1" as="geometry">
            <mxPoint x="26" y="-10" as="offset" />
          </mxGeometry>
        </mxCell>
        <mxCell id="1_MaRXWsVEtTQD-sm3cn-29" style="edgeStyle=orthogonalEdgeStyle;shape=connector;curved=1;rounded=0;orthogonalLoop=1;jettySize=auto;html=1;exitX=1;exitY=0;exitDx=0;exitDy=0;entryX=0.089;entryY=0.3;entryDx=0;entryDy=0;entryPerimeter=0;labelBackgroundColor=default;strokeColor=default;align=center;verticalAlign=middle;fontFamily=Helvetica;fontSize=11;fontColor=default;endArrow=classic;" parent="1" source="Jmizhj2TeELe9FxtLMLf-1" target="cOMLW2albzwi6cBCAeZk-3" edge="1">
          <mxGeometry relative="1" as="geometry">
            <Array as="points">
              <mxPoint x="590" y="441" />
              <mxPoint x="590" y="479" />
            </Array>
          </mxGeometry>
        </mxCell>
        <mxCell id="1_MaRXWsVEtTQD-sm3cn-30" value=")" style="edgeLabel;html=1;align=center;verticalAlign=middle;resizable=0;points=[];fontSize=11;fontFamily=Helvetica;fontColor=default;" parent="1_MaRXWsVEtTQD-sm3cn-29" vertex="1" connectable="0">
          <mxGeometry x="0.6159" relative="1" as="geometry">
            <mxPoint y="-15" as="offset" />
          </mxGeometry>
        </mxCell>
        <mxCell id="1_MaRXWsVEtTQD-sm3cn-99" style="edgeStyle=orthogonalEdgeStyle;shape=connector;curved=1;rounded=0;orthogonalLoop=1;jettySize=auto;html=1;entryX=1;entryY=1;entryDx=0;entryDy=0;labelBackgroundColor=default;strokeColor=default;align=center;verticalAlign=middle;fontFamily=Helvetica;fontSize=11;fontColor=default;endArrow=classic;" parent="1" source="1_MaRXWsVEtTQD-sm3cn-31" target="1_MaRXWsVEtTQD-sm3cn-94" edge="1">
          <mxGeometry relative="1" as="geometry">
            <Array as="points">
              <mxPoint x="210" y="187" />
            </Array>
          </mxGeometry>
        </mxCell>
        <mxCell id="1_MaRXWsVEtTQD-sm3cn-108" value="=" style="edgeLabel;html=1;align=center;verticalAlign=middle;resizable=0;points=[];fontSize=14;fontFamily=Helvetica;fontColor=default;" parent="1_MaRXWsVEtTQD-sm3cn-99" vertex="1" connectable="0">
          <mxGeometry x="0.0013" y="10" relative="1" as="geometry">
            <mxPoint x="-10" y="-8" as="offset" />
          </mxGeometry>
        </mxCell>
        <mxCell id="1_MaRXWsVEtTQD-sm3cn-31" value="F12" style="ellipse;shape=doubleEllipse;whiteSpace=wrap;html=1;aspect=fixed;fontFamily=Helvetica;fontSize=11;fontColor=default;" parent="1" vertex="1">
          <mxGeometry x="190" y="304" width="50" height="50" as="geometry" />
        </mxCell>
        <mxCell id="1_MaRXWsVEtTQD-sm3cn-32" value="F2" style="ellipse;shape=doubleEllipse;whiteSpace=wrap;html=1;aspect=fixed;fontFamily=Helvetica;fontSize=11;fontColor=default;" parent="1" vertex="1">
          <mxGeometry x="640" y="574" width="50" height="50" as="geometry" />
        </mxCell>
        <mxCell id="1_MaRXWsVEtTQD-sm3cn-33" value="F1" style="ellipse;shape=doubleEllipse;whiteSpace=wrap;html=1;aspect=fixed;fontFamily=Helvetica;fontSize=11;fontColor=default;" parent="1" vertex="1">
          <mxGeometry x="590" y="614" width="50" height="50" as="geometry" />
        </mxCell>
        <mxCell id="1_MaRXWsVEtTQD-sm3cn-44" value="F15" style="ellipse;shape=doubleEllipse;whiteSpace=wrap;html=1;aspect=fixed;fontFamily=Helvetica;fontSize=11;fontColor=default;" parent="1" vertex="1">
          <mxGeometry x="70" y="194" width="50" height="50" as="geometry" />
        </mxCell>
        <mxCell id="1_MaRXWsVEtTQD-sm3cn-46" style="edgeStyle=orthogonalEdgeStyle;shape=connector;curved=1;rounded=0;orthogonalLoop=1;jettySize=auto;html=1;entryX=0;entryY=0.4;entryDx=0;entryDy=0;entryPerimeter=0;labelBackgroundColor=default;strokeColor=default;align=center;verticalAlign=middle;fontFamily=Helvetica;fontSize=11;fontColor=default;endArrow=classic;" parent="1" source="Jmizhj2TeELe9FxtLMLf-1" target="1_MaRXWsVEtTQD-sm3cn-32" edge="1">
          <mxGeometry relative="1" as="geometry" />
        </mxCell>
        <mxCell id="1_MaRXWsVEtTQD-sm3cn-49" value="}" style="edgeLabel;html=1;align=center;verticalAlign=middle;resizable=0;points=[];fontSize=11;fontFamily=Helvetica;fontColor=default;" parent="1_MaRXWsVEtTQD-sm3cn-46" vertex="1" connectable="0">
          <mxGeometry x="0.5672" y="12" relative="1" as="geometry">
            <mxPoint x="8" y="-8" as="offset" />
          </mxGeometry>
        </mxCell>
        <mxCell id="1_MaRXWsVEtTQD-sm3cn-64" style="edgeStyle=orthogonalEdgeStyle;shape=connector;rounded=0;orthogonalLoop=1;jettySize=auto;html=1;exitX=1;exitY=0.5;exitDx=0;exitDy=0;entryX=0.012;entryY=0.732;entryDx=0;entryDy=0;entryPerimeter=0;labelBackgroundColor=default;strokeColor=default;align=center;verticalAlign=middle;fontFamily=Helvetica;fontSize=11;fontColor=default;endArrow=classic;curved=1;" parent="1" source="cOMLW2albzwi6cBCAeZk-16" target="cOMLW2albzwi6cBCAeZk-19" edge="1">
          <mxGeometry relative="1" as="geometry" />
        </mxCell>
        <mxCell id="1_MaRXWsVEtTQD-sm3cn-65" value="&amp;gt;" style="edgeLabel;html=1;align=center;verticalAlign=middle;resizable=0;points=[];fontSize=14;fontFamily=Helvetica;fontColor=default;" parent="1_MaRXWsVEtTQD-sm3cn-64" vertex="1" connectable="0">
          <mxGeometry x="0.4816" y="-3" relative="1" as="geometry">
            <mxPoint x="6" y="-15" as="offset" />
          </mxGeometry>
        </mxCell>
        <mxCell id="1_MaRXWsVEtTQD-sm3cn-69" value="Q1" style="ellipse;whiteSpace=wrap;html=1;aspect=fixed;" parent="1" vertex="1">
          <mxGeometry x="235" y="230" width="50" height="50" as="geometry" />
        </mxCell>
        <mxCell id="1_MaRXWsVEtTQD-sm3cn-70" style="edgeStyle=orthogonalEdgeStyle;shape=connector;curved=1;rounded=0;orthogonalLoop=1;jettySize=auto;html=1;entryX=1;entryY=0.2;entryDx=0;entryDy=0;entryPerimeter=0;labelBackgroundColor=default;strokeColor=default;align=center;verticalAlign=middle;fontFamily=Helvetica;fontSize=11;fontColor=default;endArrow=classic;" parent="1" source="1_MaRXWsVEtTQD-sm3cn-69" target="1_MaRXWsVEtTQD-sm3cn-69" edge="1">
          <mxGeometry relative="1" as="geometry" />
        </mxCell>
        <mxCell id="1_MaRXWsVEtTQD-sm3cn-89" value="Σ - {EOL}" style="edgeLabel;html=1;align=center;verticalAlign=middle;resizable=0;points=[];fontSize=14;fontFamily=Helvetica;fontColor=default;" parent="1_MaRXWsVEtTQD-sm3cn-70" vertex="1" connectable="0">
          <mxGeometry x="-0.3609" y="-1" relative="1" as="geometry">
            <mxPoint y="-11" as="offset" />
          </mxGeometry>
        </mxCell>
        <mxCell id="1_MaRXWsVEtTQD-sm3cn-71" style="edgeStyle=orthogonalEdgeStyle;shape=connector;curved=1;rounded=0;orthogonalLoop=1;jettySize=auto;html=1;entryX=-0.004;entryY=0.332;entryDx=0;entryDy=0;entryPerimeter=0;labelBackgroundColor=default;strokeColor=default;align=center;verticalAlign=middle;fontFamily=Helvetica;fontSize=11;fontColor=default;endArrow=classic;" parent="1" edge="1">
          <mxGeometry relative="1" as="geometry">
            <mxPoint x="260" y="280" as="sourcePoint" />
            <mxPoint x="389.99999999999994" y="448.3999999999999" as="targetPoint" />
            <Array as="points">
              <mxPoint x="260" y="448" />
            </Array>
          </mxGeometry>
        </mxCell>
        <mxCell id="1_MaRXWsVEtTQD-sm3cn-74" value="EOL" style="edgeLabel;html=1;align=center;verticalAlign=middle;resizable=0;points=[];fontSize=14;fontFamily=Helvetica;fontColor=default;" parent="1_MaRXWsVEtTQD-sm3cn-71" vertex="1" connectable="0">
          <mxGeometry x="0.0639" y="3" relative="1" as="geometry">
            <mxPoint x="47" y="-39" as="offset" />
          </mxGeometry>
        </mxCell>
        <mxCell id="1_MaRXWsVEtTQD-sm3cn-76" value="F26" style="ellipse;shape=doubleEllipse;whiteSpace=wrap;html=1;aspect=fixed;" parent="1" vertex="1">
          <mxGeometry x="355" y="175" width="50" height="50" as="geometry" />
        </mxCell>
        <mxCell id="1_MaRXWsVEtTQD-sm3cn-87" style="edgeStyle=orthogonalEdgeStyle;shape=connector;curved=1;rounded=0;orthogonalLoop=1;jettySize=auto;html=1;entryX=1;entryY=0.5;entryDx=0;entryDy=0;labelBackgroundColor=default;strokeColor=default;align=center;verticalAlign=middle;fontFamily=Helvetica;fontSize=11;fontColor=default;endArrow=classic;" parent="1" source="cOMLW2albzwi6cBCAeZk-22" target="1_MaRXWsVEtTQD-sm3cn-69" edge="1">
          <mxGeometry relative="1" as="geometry">
            <Array as="points">
              <mxPoint x="311" y="255" />
            </Array>
          </mxGeometry>
        </mxCell>
        <mxCell id="1_MaRXWsVEtTQD-sm3cn-88" value="/" style="edgeLabel;html=1;align=center;verticalAlign=middle;resizable=0;points=[];fontSize=14;fontFamily=Helvetica;fontColor=default;" parent="1_MaRXWsVEtTQD-sm3cn-87" vertex="1" connectable="0">
          <mxGeometry x="0.2398" y="-5" relative="1" as="geometry">
            <mxPoint x="1" y="5" as="offset" />
          </mxGeometry>
        </mxCell>
        <mxCell id="1_MaRXWsVEtTQD-sm3cn-101" style="edgeStyle=orthogonalEdgeStyle;shape=connector;curved=1;rounded=0;orthogonalLoop=1;jettySize=auto;html=1;entryX=1;entryY=0.5;entryDx=0;entryDy=0;labelBackgroundColor=default;strokeColor=default;align=center;verticalAlign=middle;fontFamily=Helvetica;fontSize=11;fontColor=default;endArrow=classic;" parent="1" source="1_MaRXWsVEtTQD-sm3cn-93" target="1_MaRXWsVEtTQD-sm3cn-44" edge="1">
          <mxGeometry relative="1" as="geometry">
            <Array as="points">
              <mxPoint x="160" y="219" />
            </Array>
          </mxGeometry>
        </mxCell>
        <mxCell id="1_MaRXWsVEtTQD-sm3cn-111" value="=" style="edgeLabel;html=1;align=center;verticalAlign=middle;resizable=0;points=[];fontSize=14;fontFamily=Helvetica;fontColor=default;" parent="1_MaRXWsVEtTQD-sm3cn-101" vertex="1" connectable="0">
          <mxGeometry x="0.0106" y="4" relative="1" as="geometry">
            <mxPoint x="-16" y="-22" as="offset" />
          </mxGeometry>
        </mxCell>
        <mxCell id="1_MaRXWsVEtTQD-sm3cn-93" value="F14" style="ellipse;shape=doubleEllipse;whiteSpace=wrap;html=1;aspect=fixed;fontFamily=Helvetica;fontSize=11;fontColor=default;" parent="1" vertex="1">
          <mxGeometry x="140" y="354" width="50" height="50" as="geometry" />
        </mxCell>
        <mxCell id="1_MaRXWsVEtTQD-sm3cn-94" value="F13" style="ellipse;shape=doubleEllipse;whiteSpace=wrap;html=1;aspect=fixed;fontFamily=Helvetica;fontSize=11;fontColor=default;" parent="1" vertex="1">
          <mxGeometry x="120" y="144" width="50" height="50" as="geometry" />
        </mxCell>
        <mxCell id="1_MaRXWsVEtTQD-sm3cn-95" value="F17" style="ellipse;shape=doubleEllipse;whiteSpace=wrap;html=1;aspect=fixed;fontFamily=Helvetica;fontSize=11;fontColor=default;" parent="1" vertex="1">
          <mxGeometry x="30" y="244" width="50" height="50" as="geometry" />
        </mxCell>
        <mxCell id="1_MaRXWsVEtTQD-sm3cn-103" style="edgeStyle=orthogonalEdgeStyle;shape=connector;curved=1;rounded=0;orthogonalLoop=1;jettySize=auto;html=1;labelBackgroundColor=default;strokeColor=default;align=center;verticalAlign=middle;fontFamily=Helvetica;fontSize=11;fontColor=default;endArrow=classic;" parent="1" source="1_MaRXWsVEtTQD-sm3cn-96" target="1_MaRXWsVEtTQD-sm3cn-95" edge="1">
          <mxGeometry relative="1" as="geometry">
            <Array as="points">
              <mxPoint x="100" y="269" />
            </Array>
          </mxGeometry>
        </mxCell>
        <mxCell id="1_MaRXWsVEtTQD-sm3cn-121" value="&lt;font style=&quot;font-size: 14px;&quot;&gt;=&lt;/font&gt;" style="edgeLabel;html=1;align=center;verticalAlign=middle;resizable=0;points=[];fontSize=11;fontFamily=Helvetica;fontColor=default;" parent="1_MaRXWsVEtTQD-sm3cn-103" vertex="1" connectable="0">
          <mxGeometry x="0.1664" y="3" relative="1" as="geometry">
            <mxPoint x="-7" y="4" as="offset" />
          </mxGeometry>
        </mxCell>
        <mxCell id="1_MaRXWsVEtTQD-sm3cn-96" value="F16" style="ellipse;shape=doubleEllipse;whiteSpace=wrap;html=1;aspect=fixed;fontFamily=Helvetica;fontSize=11;fontColor=default;" parent="1" vertex="1">
          <mxGeometry x="80" y="384" width="50" height="50" as="geometry" />
        </mxCell>
        <mxCell id="1_MaRXWsVEtTQD-sm3cn-97" style="edgeStyle=orthogonalEdgeStyle;shape=connector;curved=1;rounded=0;orthogonalLoop=1;jettySize=auto;html=1;exitX=-0.004;exitY=0.668;exitDx=0;exitDy=0;entryX=0.668;entryY=0.948;entryDx=0;entryDy=0;entryPerimeter=0;labelBackgroundColor=default;strokeColor=default;align=center;verticalAlign=middle;fontFamily=Helvetica;fontSize=11;fontColor=default;endArrow=classic;exitPerimeter=0;" parent="1" source="Jmizhj2TeELe9FxtLMLf-1" target="1_MaRXWsVEtTQD-sm3cn-31" edge="1">
          <mxGeometry relative="1" as="geometry" />
        </mxCell>
        <mxCell id="1_MaRXWsVEtTQD-sm3cn-107" value="=" style="edgeLabel;html=1;align=center;verticalAlign=middle;resizable=0;points=[];fontSize=14;fontFamily=Helvetica;fontColor=default;" parent="1_MaRXWsVEtTQD-sm3cn-97" vertex="1" connectable="0">
          <mxGeometry x="-0.0765" y="-34" relative="1" as="geometry">
            <mxPoint x="-14" y="-29" as="offset" />
          </mxGeometry>
        </mxCell>
        <mxCell id="1_MaRXWsVEtTQD-sm3cn-100" style="edgeStyle=orthogonalEdgeStyle;shape=connector;curved=1;rounded=0;orthogonalLoop=1;jettySize=auto;html=1;exitX=0;exitY=1;exitDx=0;exitDy=0;entryX=0.66;entryY=1.02;entryDx=0;entryDy=0;entryPerimeter=0;labelBackgroundColor=default;strokeColor=default;align=center;verticalAlign=middle;fontFamily=Helvetica;fontSize=11;fontColor=default;endArrow=classic;" parent="1" source="Jmizhj2TeELe9FxtLMLf-1" target="1_MaRXWsVEtTQD-sm3cn-93" edge="1">
          <mxGeometry relative="1" as="geometry" />
        </mxCell>
        <mxCell id="1_MaRXWsVEtTQD-sm3cn-110" value="&amp;lt;" style="edgeLabel;html=1;align=center;verticalAlign=middle;resizable=0;points=[];fontSize=11;fontFamily=Helvetica;fontColor=default;" parent="1_MaRXWsVEtTQD-sm3cn-100" vertex="1" connectable="0">
          <mxGeometry x="0.7405" y="-19" relative="1" as="geometry">
            <mxPoint y="-9" as="offset" />
          </mxGeometry>
        </mxCell>
        <mxCell id="1_MaRXWsVEtTQD-sm3cn-106" style="edgeStyle=orthogonalEdgeStyle;shape=connector;curved=1;rounded=0;orthogonalLoop=1;jettySize=auto;html=1;entryX=0.5;entryY=1;entryDx=0;entryDy=0;labelBackgroundColor=default;strokeColor=default;align=center;verticalAlign=middle;fontFamily=Helvetica;fontSize=11;fontColor=default;endArrow=classic;exitX=0.284;exitY=0.988;exitDx=0;exitDy=0;exitPerimeter=0;" parent="1" source="Jmizhj2TeELe9FxtLMLf-1" target="1_MaRXWsVEtTQD-sm3cn-113" edge="1">
          <mxGeometry relative="1" as="geometry">
            <mxPoint x="91.79999999999995" y="507" as="targetPoint" />
            <Array as="points">
              <mxPoint x="404" y="507" />
              <mxPoint x="45" y="507" />
            </Array>
          </mxGeometry>
        </mxCell>
        <mxCell id="1_MaRXWsVEtTQD-sm3cn-119" value="?" style="edgeLabel;html=1;align=center;verticalAlign=middle;resizable=0;points=[];fontSize=14;fontFamily=Helvetica;fontColor=default;" parent="1_MaRXWsVEtTQD-sm3cn-106" vertex="1" connectable="0">
          <mxGeometry x="0.7195" y="-5" relative="1" as="geometry">
            <mxPoint x="1" y="-13" as="offset" />
          </mxGeometry>
        </mxCell>
        <mxCell id="1_MaRXWsVEtTQD-sm3cn-112" value="F18" style="ellipse;shape=doubleEllipse;whiteSpace=wrap;html=1;aspect=fixed;fontFamily=Helvetica;fontSize=11;fontColor=default;" parent="1" vertex="1">
          <mxGeometry y="304" width="50" height="50" as="geometry" />
        </mxCell>
        <mxCell id="1_MaRXWsVEtTQD-sm3cn-117" style="edgeStyle=orthogonalEdgeStyle;shape=connector;curved=1;rounded=0;orthogonalLoop=1;jettySize=auto;html=1;entryX=0.5;entryY=1;entryDx=0;entryDy=0;labelBackgroundColor=default;strokeColor=default;align=center;verticalAlign=middle;fontFamily=Helvetica;fontSize=11;fontColor=default;endArrow=classic;" parent="1" source="1_MaRXWsVEtTQD-sm3cn-113" target="1_MaRXWsVEtTQD-sm3cn-112" edge="1">
          <mxGeometry relative="1" as="geometry" />
        </mxCell>
        <mxCell id="1_MaRXWsVEtTQD-sm3cn-118" value="?" style="edgeLabel;html=1;align=center;verticalAlign=middle;resizable=0;points=[];fontSize=14;fontFamily=Helvetica;fontColor=default;" parent="1_MaRXWsVEtTQD-sm3cn-117" vertex="1" connectable="0">
          <mxGeometry x="0.4181" y="-2" relative="1" as="geometry">
            <mxPoint x="-7" y="-4" as="offset" />
          </mxGeometry>
        </mxCell>
        <mxCell id="1_MaRXWsVEtTQD-sm3cn-113" value="Q2" style="ellipse;whiteSpace=wrap;html=1;aspect=fixed;strokeColor=default;" parent="1" vertex="1">
          <mxGeometry x="20" y="434" width="50" height="50" as="geometry" />
        </mxCell>
        <mxCell id="1_MaRXWsVEtTQD-sm3cn-122" value="F19" style="ellipse;shape=doubleEllipse;whiteSpace=wrap;html=1;aspect=fixed;fontFamily=Helvetica;fontSize=11;fontColor=default;" parent="1" vertex="1">
          <mxGeometry x="15" y="514" width="50" height="50" as="geometry" />
        </mxCell>
        <mxCell id="1_MaRXWsVEtTQD-sm3cn-123" style="edgeStyle=orthogonalEdgeStyle;shape=connector;curved=1;rounded=0;orthogonalLoop=1;jettySize=auto;html=1;labelBackgroundColor=default;strokeColor=default;align=center;verticalAlign=middle;fontFamily=Helvetica;fontSize=11;fontColor=default;endArrow=classic;exitX=0.42;exitY=1;exitDx=0;exitDy=0;exitPerimeter=0;" parent="1" source="Jmizhj2TeELe9FxtLMLf-1" edge="1">
          <mxGeometry relative="1" as="geometry">
            <mxPoint x="415.51" y="484" as="sourcePoint" />
            <mxPoint x="65" y="544" as="targetPoint" />
            <Array as="points">
              <mxPoint x="411" y="544" />
            </Array>
          </mxGeometry>
        </mxCell>
        <mxCell id="1_MaRXWsVEtTQD-sm3cn-124" value="0x20, 0x0A, 0x0D, 0x09, 0x0B, 0x0C, 0x00" style="edgeLabel;html=1;align=center;verticalAlign=middle;resizable=0;points=[];fontSize=11;fontFamily=Helvetica;fontColor=default;" parent="1_MaRXWsVEtTQD-sm3cn-123" vertex="1" connectable="0">
          <mxGeometry x="0.4929" y="-3" relative="1" as="geometry">
            <mxPoint x="12" y="-17" as="offset" />
          </mxGeometry>
        </mxCell>
        <mxCell id="1_MaRXWsVEtTQD-sm3cn-134" style="edgeStyle=orthogonalEdgeStyle;shape=connector;curved=1;rounded=0;orthogonalLoop=1;jettySize=auto;html=1;entryX=1;entryY=0.5;entryDx=0;entryDy=0;labelBackgroundColor=default;strokeColor=default;align=center;verticalAlign=middle;fontFamily=Helvetica;fontSize=11;fontColor=default;endArrow=classic;" parent="1" source="1_MaRXWsVEtTQD-sm3cn-126" target="1_MaRXWsVEtTQD-sm3cn-133" edge="1">
          <mxGeometry relative="1" as="geometry">
            <Array as="points">
              <mxPoint x="235" y="720" />
              <mxPoint x="90" y="720" />
            </Array>
          </mxGeometry>
        </mxCell>
        <mxCell id="1_MaRXWsVEtTQD-sm3cn-135" value="e, E" style="edgeLabel;html=1;align=center;verticalAlign=middle;resizable=0;points=[];fontSize=11;fontFamily=Helvetica;fontColor=default;" parent="1_MaRXWsVEtTQD-sm3cn-134" vertex="1" connectable="0">
          <mxGeometry x="0.3323" y="-5" relative="1" as="geometry">
            <mxPoint x="-20" y="-5" as="offset" />
          </mxGeometry>
        </mxCell>
        <mxCell id="1_MaRXWsVEtTQD-sm3cn-147" style="edgeStyle=orthogonalEdgeStyle;shape=connector;curved=1;rounded=0;orthogonalLoop=1;jettySize=auto;html=1;exitX=1;exitY=1;exitDx=0;exitDy=0;entryX=0.5;entryY=0;entryDx=0;entryDy=0;labelBackgroundColor=default;strokeColor=default;align=center;verticalAlign=middle;fontFamily=Helvetica;fontSize=11;fontColor=default;endArrow=classic;" parent="1" source="1_MaRXWsVEtTQD-sm3cn-126" target="1_MaRXWsVEtTQD-sm3cn-146" edge="1">
          <mxGeometry relative="1" as="geometry">
            <Array as="points">
              <mxPoint x="250" y="707" />
              <mxPoint x="250" y="764" />
            </Array>
          </mxGeometry>
        </mxCell>
        <mxCell id="1_MaRXWsVEtTQD-sm3cn-148" value="." style="edgeLabel;html=1;align=center;verticalAlign=middle;resizable=0;points=[];fontSize=14;fontFamily=Helvetica;fontColor=default;" parent="1_MaRXWsVEtTQD-sm3cn-147" vertex="1" connectable="0">
          <mxGeometry x="0.0499" relative="1" as="geometry">
            <mxPoint x="-10" y="8" as="offset" />
          </mxGeometry>
        </mxCell>
        <mxCell id="1_MaRXWsVEtTQD-sm3cn-126" value="F22" style="ellipse;shape=doubleEllipse;whiteSpace=wrap;html=1;aspect=fixed;fontFamily=Helvetica;fontSize=11;fontColor=default;" parent="1" vertex="1">
          <mxGeometry x="210" y="664" width="50" height="50" as="geometry" />
        </mxCell>
        <mxCell id="1_MaRXWsVEtTQD-sm3cn-129" style="edgeStyle=orthogonalEdgeStyle;shape=connector;curved=1;rounded=0;orthogonalLoop=1;jettySize=auto;html=1;exitX=1;exitY=1;exitDx=0;exitDy=0;entryX=1.034;entryY=0.38;entryDx=0;entryDy=0;entryPerimeter=0;labelBackgroundColor=default;strokeColor=default;align=center;verticalAlign=middle;fontFamily=Helvetica;fontSize=11;fontColor=default;endArrow=classic;" parent="1" source="Jmizhj2TeELe9FxtLMLf-19" target="Jmizhj2TeELe9FxtLMLf-19" edge="1">
          <mxGeometry relative="1" as="geometry">
            <Array as="points">
              <mxPoint x="353" y="784" />
              <mxPoint x="400" y="784" />
              <mxPoint x="400" y="743" />
            </Array>
          </mxGeometry>
        </mxCell>
        <mxCell id="1_MaRXWsVEtTQD-sm3cn-131" style="edgeStyle=orthogonalEdgeStyle;shape=connector;curved=1;rounded=0;orthogonalLoop=1;jettySize=auto;html=1;exitX=0;exitY=0;exitDx=0;exitDy=0;entryX=0;entryY=0.5;entryDx=0;entryDy=0;labelBackgroundColor=default;strokeColor=default;align=center;verticalAlign=middle;fontFamily=Helvetica;fontSize=11;fontColor=default;endArrow=classic;" parent="1" source="1_MaRXWsVEtTQD-sm3cn-126" target="1_MaRXWsVEtTQD-sm3cn-126" edge="1">
          <mxGeometry relative="1" as="geometry">
            <Array as="points">
              <mxPoint x="180" y="671" />
              <mxPoint x="180" y="690" />
              <mxPoint x="210" y="690" />
            </Array>
          </mxGeometry>
        </mxCell>
        <mxCell id="1_MaRXWsVEtTQD-sm3cn-132" value="0-9" style="edgeLabel;html=1;align=center;verticalAlign=middle;resizable=0;points=[];fontSize=14;fontFamily=Helvetica;fontColor=default;" parent="1_MaRXWsVEtTQD-sm3cn-131" vertex="1" connectable="0">
          <mxGeometry x="-0.0085" relative="1" as="geometry">
            <mxPoint x="-15" y="-2" as="offset" />
          </mxGeometry>
        </mxCell>
        <mxCell id="1_MaRXWsVEtTQD-sm3cn-138" style="edgeStyle=orthogonalEdgeStyle;shape=connector;curved=1;rounded=0;orthogonalLoop=1;jettySize=auto;html=1;entryX=0.5;entryY=0;entryDx=0;entryDy=0;labelBackgroundColor=default;strokeColor=default;align=center;verticalAlign=middle;fontFamily=Helvetica;fontSize=11;fontColor=default;endArrow=classic;" parent="1" source="1_MaRXWsVEtTQD-sm3cn-133" target="1_MaRXWsVEtTQD-sm3cn-136" edge="1">
          <mxGeometry relative="1" as="geometry">
            <Array as="points">
              <mxPoint x="55" y="739" />
            </Array>
          </mxGeometry>
        </mxCell>
        <mxCell id="dYA03i0IP1dTVJbQFC6O-90" value="&lt;font style=&quot;font-size: 14px;&quot;&gt;+, -&lt;br style=&quot;font-size: 14px;&quot;&gt;&lt;/font&gt;" style="edgeLabel;html=1;align=center;verticalAlign=middle;resizable=0;points=[];fontSize=14;fontFamily=Helvetica;fontColor=default;" parent="1_MaRXWsVEtTQD-sm3cn-138" vertex="1" connectable="0">
          <mxGeometry x="-0.0769" y="6" relative="1" as="geometry">
            <mxPoint x="-21" y="3" as="offset" />
          </mxGeometry>
        </mxCell>
        <mxCell id="1_MaRXWsVEtTQD-sm3cn-141" style="edgeStyle=orthogonalEdgeStyle;shape=connector;curved=1;rounded=0;orthogonalLoop=1;jettySize=auto;html=1;exitX=0.5;exitY=1;exitDx=0;exitDy=0;entryX=0.5;entryY=0;entryDx=0;entryDy=0;labelBackgroundColor=default;strokeColor=default;align=center;verticalAlign=middle;fontFamily=Helvetica;fontSize=11;fontColor=default;endArrow=classic;" parent="1" source="1_MaRXWsVEtTQD-sm3cn-133" target="1_MaRXWsVEtTQD-sm3cn-140" edge="1">
          <mxGeometry relative="1" as="geometry">
            <Array as="points">
              <mxPoint x="125" y="764" />
            </Array>
          </mxGeometry>
        </mxCell>
        <mxCell id="dYA03i0IP1dTVJbQFC6O-97" value="0-9" style="edgeLabel;html=1;align=center;verticalAlign=middle;resizable=0;points=[];fontSize=14;fontFamily=Helvetica;fontColor=default;" parent="1_MaRXWsVEtTQD-sm3cn-141" vertex="1" connectable="0">
          <mxGeometry x="0.1498" relative="1" as="geometry">
            <mxPoint x="15" y="21" as="offset" />
          </mxGeometry>
        </mxCell>
        <mxCell id="1_MaRXWsVEtTQD-sm3cn-133" value="Q4" style="ellipse;whiteSpace=wrap;html=1;aspect=fixed;" parent="1" vertex="1">
          <mxGeometry x="40" y="694" width="50" height="50" as="geometry" />
        </mxCell>
        <mxCell id="1_MaRXWsVEtTQD-sm3cn-142" style="edgeStyle=orthogonalEdgeStyle;shape=connector;curved=1;rounded=0;orthogonalLoop=1;jettySize=auto;html=1;entryX=0;entryY=0.5;entryDx=0;entryDy=0;labelBackgroundColor=default;strokeColor=default;align=center;verticalAlign=middle;fontFamily=Helvetica;fontSize=11;fontColor=default;endArrow=classic;" parent="1" source="1_MaRXWsVEtTQD-sm3cn-136" target="1_MaRXWsVEtTQD-sm3cn-140" edge="1">
          <mxGeometry relative="1" as="geometry">
            <Array as="points">
              <mxPoint x="60" y="865" />
            </Array>
          </mxGeometry>
        </mxCell>
        <mxCell id="dYA03i0IP1dTVJbQFC6O-91" value="0-9" style="edgeLabel;html=1;align=center;verticalAlign=middle;resizable=0;points=[];fontSize=14;fontFamily=Helvetica;fontColor=default;" parent="1_MaRXWsVEtTQD-sm3cn-142" vertex="1" connectable="0">
          <mxGeometry x="-0.3045" y="5" relative="1" as="geometry">
            <mxPoint x="-20" y="7" as="offset" />
          </mxGeometry>
        </mxCell>
        <mxCell id="1_MaRXWsVEtTQD-sm3cn-136" value="Q5" style="ellipse;whiteSpace=wrap;html=1;aspect=fixed;" parent="1" vertex="1">
          <mxGeometry x="30" y="794" width="50" height="50" as="geometry" />
        </mxCell>
        <mxCell id="1_MaRXWsVEtTQD-sm3cn-140" value="F24" style="ellipse;shape=doubleEllipse;whiteSpace=wrap;html=1;aspect=fixed;fontFamily=Helvetica;fontSize=11;fontColor=default;" parent="1" vertex="1">
          <mxGeometry x="80" y="840" width="50" height="50" as="geometry" />
        </mxCell>
        <mxCell id="1_MaRXWsVEtTQD-sm3cn-151" style="edgeStyle=orthogonalEdgeStyle;shape=connector;curved=1;rounded=0;orthogonalLoop=1;jettySize=auto;html=1;exitX=0.5;exitY=1;exitDx=0;exitDy=0;labelBackgroundColor=default;strokeColor=default;align=center;verticalAlign=middle;fontFamily=Helvetica;fontSize=11;fontColor=default;endArrow=classic;" parent="1" source="1_MaRXWsVEtTQD-sm3cn-146" target="1_MaRXWsVEtTQD-sm3cn-150" edge="1">
          <mxGeometry relative="1" as="geometry" />
        </mxCell>
        <mxCell id="1_MaRXWsVEtTQD-sm3cn-152" value="0-9" style="edgeLabel;html=1;align=center;verticalAlign=middle;resizable=0;points=[];fontSize=14;fontFamily=Helvetica;fontColor=default;" parent="1_MaRXWsVEtTQD-sm3cn-151" vertex="1" connectable="0">
          <mxGeometry x="-0.0769" y="3" relative="1" as="geometry">
            <mxPoint x="-23" y="7" as="offset" />
          </mxGeometry>
        </mxCell>
        <mxCell id="1_MaRXWsVEtTQD-sm3cn-146" value="Q3" style="ellipse;whiteSpace=wrap;html=1;aspect=fixed;" parent="1" vertex="1">
          <mxGeometry x="220" y="764" width="50" height="50" as="geometry" />
        </mxCell>
        <mxCell id="1_MaRXWsVEtTQD-sm3cn-150" value="F23" style="ellipse;shape=doubleEllipse;whiteSpace=wrap;html=1;aspect=fixed;fontFamily=Helvetica;fontSize=11;fontColor=default;" parent="1" vertex="1">
          <mxGeometry x="220" y="864" width="50" height="50" as="geometry" />
        </mxCell>
        <mxCell id="1_MaRXWsVEtTQD-sm3cn-153" style="edgeStyle=orthogonalEdgeStyle;shape=connector;curved=1;rounded=0;orthogonalLoop=1;jettySize=auto;html=1;entryX=0.986;entryY=0.877;entryDx=0;entryDy=0;entryPerimeter=0;labelBackgroundColor=default;strokeColor=default;align=center;verticalAlign=middle;fontFamily=Helvetica;fontSize=11;fontColor=default;endArrow=classic;" parent="1" source="1_MaRXWsVEtTQD-sm3cn-150" target="1_MaRXWsVEtTQD-sm3cn-133" edge="1">
          <mxGeometry relative="1" as="geometry" />
        </mxCell>
        <mxCell id="1_MaRXWsVEtTQD-sm3cn-154" value="e, E" style="edgeLabel;html=1;align=center;verticalAlign=middle;resizable=0;points=[];fontSize=11;fontFamily=Helvetica;fontColor=default;" parent="1_MaRXWsVEtTQD-sm3cn-153" vertex="1" connectable="0">
          <mxGeometry x="0.3235" y="6" relative="1" as="geometry">
            <mxPoint x="11" y="-10" as="offset" />
          </mxGeometry>
        </mxCell>
        <mxCell id="1_MaRXWsVEtTQD-sm3cn-156" value="(Σ &amp;gt;= 0x20) - {\, EOL, &quot;}" style="edgeLabel;html=1;align=center;verticalAlign=middle;resizable=0;points=[];fontSize=11;fontFamily=Helvetica;fontColor=default;" parent="1" vertex="1" connectable="0">
          <mxGeometry x="460.0004917432302" y="764" as="geometry" />
        </mxCell>
        <mxCell id="1_MaRXWsVEtTQD-sm3cn-165" style="edgeStyle=orthogonalEdgeStyle;shape=connector;curved=1;rounded=0;orthogonalLoop=1;jettySize=auto;html=1;labelBackgroundColor=default;strokeColor=default;align=center;verticalAlign=middle;fontFamily=Helvetica;fontSize=11;fontColor=default;endArrow=classic;entryX=0;entryY=1;entryDx=0;entryDy=0;exitX=0;exitY=1;exitDx=0;exitDy=0;" parent="1" source="1_MaRXWsVEtTQD-sm3cn-158" target="Jmizhj2TeELe9FxtLMLf-19" edge="1">
          <mxGeometry relative="1" as="geometry">
            <Array as="points">
              <mxPoint x="300" y="897" />
              <mxPoint x="300" y="767" />
            </Array>
          </mxGeometry>
        </mxCell>
        <mxCell id="dYA03i0IP1dTVJbQFC6O-3" value="\, &quot;, r, t, n " style="edgeLabel;html=1;align=center;verticalAlign=middle;resizable=0;points=[];" parent="1_MaRXWsVEtTQD-sm3cn-165" vertex="1" connectable="0">
          <mxGeometry x="-0.3661" y="-6" relative="1" as="geometry">
            <mxPoint x="32" y="-21" as="offset" />
          </mxGeometry>
        </mxCell>
        <mxCell id="KZ-Oyi-OiSotZPvz-CzS-5" style="edgeStyle=orthogonalEdgeStyle;rounded=0;orthogonalLoop=1;jettySize=auto;html=1;exitX=1;exitY=0.5;exitDx=0;exitDy=0;curved=1;" parent="1" source="1_MaRXWsVEtTQD-sm3cn-158" target="1_MaRXWsVEtTQD-sm3cn-161" edge="1">
          <mxGeometry relative="1" as="geometry" />
        </mxCell>
        <mxCell id="KZ-Oyi-OiSotZPvz-CzS-6" value="u" style="edgeLabel;html=1;align=center;verticalAlign=middle;resizable=0;points=[];fontSize=11;fontFamily=Helvetica;fontColor=default;" parent="KZ-Oyi-OiSotZPvz-CzS-5" vertex="1" connectable="0">
          <mxGeometry x="0.1751" y="-8" relative="1" as="geometry">
            <mxPoint x="-12" y="6" as="offset" />
          </mxGeometry>
        </mxCell>
        <mxCell id="1_MaRXWsVEtTQD-sm3cn-158" value="Q8" style="ellipse;whiteSpace=wrap;html=1;aspect=fixed;" parent="1" vertex="1">
          <mxGeometry x="380" y="854" width="50" height="50" as="geometry" />
        </mxCell>
        <mxCell id="1_MaRXWsVEtTQD-sm3cn-159" style="edgeStyle=orthogonalEdgeStyle;shape=connector;curved=1;rounded=0;orthogonalLoop=1;jettySize=auto;html=1;entryX=0.264;entryY=0.058;entryDx=0;entryDy=0;entryPerimeter=0;labelBackgroundColor=default;strokeColor=default;align=center;verticalAlign=middle;fontFamily=Helvetica;fontSize=11;fontColor=default;endArrow=classic;" parent="1" source="Jmizhj2TeELe9FxtLMLf-19" target="1_MaRXWsVEtTQD-sm3cn-158" edge="1">
          <mxGeometry relative="1" as="geometry">
            <Array as="points">
              <mxPoint x="340" y="857" />
            </Array>
          </mxGeometry>
        </mxCell>
        <mxCell id="1_MaRXWsVEtTQD-sm3cn-160" value="\" style="edgeLabel;html=1;align=center;verticalAlign=middle;resizable=0;points=[];fontSize=14;fontFamily=Helvetica;fontColor=default;" parent="1_MaRXWsVEtTQD-sm3cn-159" vertex="1" connectable="0">
          <mxGeometry x="-0.0948" relative="1" as="geometry">
            <mxPoint x="-5" y="-17" as="offset" />
          </mxGeometry>
        </mxCell>
        <mxCell id="1_MaRXWsVEtTQD-sm3cn-161" value="Q9" style="ellipse;whiteSpace=wrap;html=1;aspect=fixed;" parent="1" vertex="1">
          <mxGeometry x="440" y="920" width="50" height="50" as="geometry" />
        </mxCell>
        <mxCell id="1_MaRXWsVEtTQD-sm3cn-172" style="edgeStyle=orthogonalEdgeStyle;shape=connector;curved=1;rounded=0;orthogonalLoop=1;jettySize=auto;html=1;labelBackgroundColor=default;strokeColor=default;align=center;verticalAlign=middle;fontFamily=Helvetica;fontSize=11;fontColor=default;endArrow=classic;entryX=1;entryY=0.5;entryDx=0;entryDy=0;" parent="1" source="1_MaRXWsVEtTQD-sm3cn-168" target="1_MaRXWsVEtTQD-sm3cn-173" edge="1">
          <mxGeometry relative="1" as="geometry">
            <mxPoint x="515" y="1014" as="targetPoint" />
            <Array as="points">
              <mxPoint x="400" y="1039" />
              <mxPoint x="400" y="1039" />
            </Array>
          </mxGeometry>
        </mxCell>
        <mxCell id="1_MaRXWsVEtTQD-sm3cn-174" value="0-9, a-f, A-F" style="edgeLabel;html=1;align=center;verticalAlign=middle;resizable=0;points=[];fontSize=11;fontFamily=Helvetica;fontColor=default;" parent="1_MaRXWsVEtTQD-sm3cn-172" vertex="1" connectable="0">
          <mxGeometry x="-0.052" y="1" relative="1" as="geometry">
            <mxPoint x="-4" y="-16" as="offset" />
          </mxGeometry>
        </mxCell>
        <mxCell id="1_MaRXWsVEtTQD-sm3cn-176" style="edgeStyle=orthogonalEdgeStyle;shape=connector;curved=1;rounded=0;orthogonalLoop=1;jettySize=auto;html=1;entryX=1;entryY=0.5;entryDx=0;entryDy=0;labelBackgroundColor=default;strokeColor=default;align=center;verticalAlign=middle;fontFamily=Helvetica;fontSize=11;fontColor=default;endArrow=classic;exitX=0;exitY=0.5;exitDx=0;exitDy=0;" parent="1" source="1_MaRXWsVEtTQD-sm3cn-173" target="1_MaRXWsVEtTQD-sm3cn-175" edge="1">
          <mxGeometry relative="1" as="geometry">
            <Array as="points" />
          </mxGeometry>
        </mxCell>
        <mxCell id="1_MaRXWsVEtTQD-sm3cn-173" value="Q11" style="ellipse;whiteSpace=wrap;html=1;aspect=fixed;" parent="1" vertex="1">
          <mxGeometry x="300" y="1014" width="50" height="50" as="geometry" />
        </mxCell>
        <mxCell id="1_MaRXWsVEtTQD-sm3cn-175" value="Q12" style="ellipse;whiteSpace=wrap;html=1;aspect=fixed;" parent="1" vertex="1">
          <mxGeometry x="165" y="1014" width="50" height="50" as="geometry" />
        </mxCell>
        <mxCell id="1_MaRXWsVEtTQD-sm3cn-177" value="0-9, a-f, A-F" style="edgeLabel;html=1;align=center;verticalAlign=middle;resizable=0;points=[];fontSize=11;fontFamily=Helvetica;fontColor=default;" parent="1" vertex="1" connectable="0">
          <mxGeometry x="265" y="1025.0009523809522" as="geometry" />
        </mxCell>
        <mxCell id="1_MaRXWsVEtTQD-sm3cn-178" style="edgeStyle=orthogonalEdgeStyle;shape=connector;curved=1;rounded=0;orthogonalLoop=1;jettySize=auto;html=1;exitX=0.5;exitY=0;exitDx=0;exitDy=0;entryX=0.02;entryY=0.4;entryDx=0;entryDy=0;entryPerimeter=0;labelBackgroundColor=default;strokeColor=default;align=center;verticalAlign=middle;fontFamily=Helvetica;fontSize=11;fontColor=default;endArrow=classic;" parent="1" source="1_MaRXWsVEtTQD-sm3cn-175" target="Jmizhj2TeELe9FxtLMLf-19" edge="1">
          <mxGeometry relative="1" as="geometry">
            <Array as="points">
              <mxPoint x="190" y="990" />
              <mxPoint x="280" y="990" />
              <mxPoint x="280" y="744" />
            </Array>
          </mxGeometry>
        </mxCell>
        <mxCell id="1_MaRXWsVEtTQD-sm3cn-179" value="}" style="edgeLabel;html=1;align=center;verticalAlign=middle;resizable=0;points=[];fontSize=14;fontFamily=Helvetica;fontColor=default;" parent="1_MaRXWsVEtTQD-sm3cn-178" vertex="1" connectable="0">
          <mxGeometry x="-0.2939" y="-11" relative="1" as="geometry">
            <mxPoint x="14" y="-3" as="offset" />
          </mxGeometry>
        </mxCell>
        <mxCell id="1_MaRXWsVEtTQD-sm3cn-189" value="&lt;div style=&quot;font-size: 13px;&quot;&gt;(Σ &amp;gt;= 0x20) - {\, EOL,&amp;nbsp; &quot;}&lt;/div&gt;" style="text;whiteSpace=wrap;html=1;fontSize=13;fontFamily=Helvetica;fontColor=default;" parent="1" vertex="1">
          <mxGeometry x="680" y="620" width="150" height="40" as="geometry" />
        </mxCell>
        <mxCell id="1_MaRXWsVEtTQD-sm3cn-193" value="Q16" style="ellipse;whiteSpace=wrap;html=1;aspect=fixed;" parent="1" vertex="1">
          <mxGeometry x="565" y="750" width="50" height="50" as="geometry" />
        </mxCell>
        <mxCell id="1_MaRXWsVEtTQD-sm3cn-198" style="edgeStyle=orthogonalEdgeStyle;shape=connector;curved=1;rounded=0;orthogonalLoop=1;jettySize=auto;html=1;exitX=0.722;exitY=0.983;exitDx=0;exitDy=0;entryX=0.991;entryY=0.652;entryDx=0;entryDy=0;labelBackgroundColor=default;strokeColor=default;align=center;verticalAlign=middle;fontFamily=Helvetica;fontSize=11;fontColor=default;endArrow=classic;entryPerimeter=0;exitPerimeter=0;" parent="1" source="1_MaRXWsVEtTQD-sm3cn-194" target="KZ-Oyi-OiSotZPvz-CzS-1" edge="1">
          <mxGeometry relative="1" as="geometry">
            <Array as="points">
              <mxPoint x="580" y="903" />
              <mxPoint x="580" y="967" />
            </Array>
          </mxGeometry>
        </mxCell>
        <mxCell id="1_MaRXWsVEtTQD-sm3cn-205" value="&quot;" style="edgeLabel;html=1;align=center;verticalAlign=middle;resizable=0;points=[];fontSize=14;fontFamily=Helvetica;fontColor=default;" parent="1_MaRXWsVEtTQD-sm3cn-198" vertex="1" connectable="0">
          <mxGeometry x="-0.1515" y="-3" relative="1" as="geometry">
            <mxPoint x="-7" y="14" as="offset" />
          </mxGeometry>
        </mxCell>
        <mxCell id="1_MaRXWsVEtTQD-sm3cn-194" value="Q17" style="ellipse;whiteSpace=wrap;html=1;aspect=fixed;" parent="1" vertex="1">
          <mxGeometry x="540" y="854" width="50" height="50" as="geometry" />
        </mxCell>
        <mxCell id="1_MaRXWsVEtTQD-sm3cn-195" style="edgeStyle=orthogonalEdgeStyle;shape=connector;curved=1;rounded=0;orthogonalLoop=1;jettySize=auto;html=1;entryX=0.569;entryY=-0.047;entryDx=0;entryDy=0;entryPerimeter=0;labelBackgroundColor=default;strokeColor=default;align=center;verticalAlign=middle;fontFamily=Helvetica;fontSize=11;fontColor=default;endArrow=classic;" parent="1" source="Jmizhj2TeELe9FxtLMLf-30" target="1_MaRXWsVEtTQD-sm3cn-193" edge="1">
          <mxGeometry relative="1" as="geometry" />
        </mxCell>
        <mxCell id="1_MaRXWsVEtTQD-sm3cn-202" value="EOL" style="edgeLabel;html=1;align=center;verticalAlign=middle;resizable=0;points=[];fontSize=14;fontFamily=Helvetica;fontColor=default;" parent="1_MaRXWsVEtTQD-sm3cn-195" vertex="1" connectable="0">
          <mxGeometry x="-0.3666" y="2" relative="1" as="geometry">
            <mxPoint x="-48" y="19" as="offset" />
          </mxGeometry>
        </mxCell>
        <mxCell id="1_MaRXWsVEtTQD-sm3cn-200" style="edgeStyle=orthogonalEdgeStyle;shape=connector;curved=1;rounded=0;orthogonalLoop=1;jettySize=auto;html=1;exitX=1;exitY=0;exitDx=0;exitDy=0;entryX=0.016;entryY=0.744;entryDx=0;entryDy=0;entryPerimeter=0;labelBackgroundColor=default;strokeColor=default;align=center;verticalAlign=middle;fontFamily=Helvetica;fontSize=11;fontColor=default;endArrow=classic;" parent="1" source="1_MaRXWsVEtTQD-sm3cn-193" target="Jmizhj2TeELe9FxtLMLf-30" edge="1">
          <mxGeometry relative="1" as="geometry">
            <Array as="points">
              <mxPoint x="608" y="760" />
              <mxPoint x="653" y="760" />
              <mxPoint x="653" y="731" />
            </Array>
          </mxGeometry>
        </mxCell>
        <mxCell id="1_MaRXWsVEtTQD-sm3cn-201" style="edgeStyle=orthogonalEdgeStyle;shape=connector;curved=1;rounded=0;orthogonalLoop=1;jettySize=auto;html=1;labelBackgroundColor=default;strokeColor=default;align=center;verticalAlign=middle;fontFamily=Helvetica;fontSize=11;fontColor=default;endArrow=classic;" parent="1" source="1_MaRXWsVEtTQD-sm3cn-194" target="Jmizhj2TeELe9FxtLMLf-30" edge="1">
          <mxGeometry relative="1" as="geometry">
            <Array as="points">
              <mxPoint x="720" y="895" />
            </Array>
          </mxGeometry>
        </mxCell>
        <mxCell id="dYA03i0IP1dTVJbQFC6O-9" style="edgeStyle=orthogonalEdgeStyle;shape=connector;curved=1;rounded=0;orthogonalLoop=1;jettySize=auto;html=1;labelBackgroundColor=default;strokeColor=default;align=center;verticalAlign=middle;fontFamily=Helvetica;fontSize=11;fontColor=default;endArrow=classic;" parent="1" source="1_MaRXWsVEtTQD-sm3cn-207" target="dYA03i0IP1dTVJbQFC6O-8" edge="1">
          <mxGeometry relative="1" as="geometry">
            <Array as="points">
              <mxPoint x="660" y="1055" />
            </Array>
          </mxGeometry>
        </mxCell>
        <mxCell id="dYA03i0IP1dTVJbQFC6O-10" value="u" style="edgeLabel;html=1;align=center;verticalAlign=middle;resizable=0;points=[];fontSize=14;fontFamily=Helvetica;fontColor=default;" parent="dYA03i0IP1dTVJbQFC6O-9" vertex="1" connectable="0">
          <mxGeometry x="0.4082" y="4" relative="1" as="geometry">
            <mxPoint x="-12" y="-25" as="offset" />
          </mxGeometry>
        </mxCell>
        <mxCell id="1_MaRXWsVEtTQD-sm3cn-207" value="Q19" style="ellipse;whiteSpace=wrap;html=1;aspect=fixed;" parent="1" vertex="1">
          <mxGeometry x="635" y="960" width="50" height="50" as="geometry" />
        </mxCell>
        <mxCell id="dYA03i0IP1dTVJbQFC6O-1" style="edgeStyle=orthogonalEdgeStyle;rounded=0;orthogonalLoop=1;jettySize=auto;html=1;exitX=0;exitY=0;exitDx=0;exitDy=0;entryX=0.026;entryY=0.686;entryDx=0;entryDy=0;entryPerimeter=0;curved=1;" parent="1" source="1_MaRXWsVEtTQD-sm3cn-173" target="Jmizhj2TeELe9FxtLMLf-19" edge="1">
          <mxGeometry relative="1" as="geometry">
            <Array as="points">
              <mxPoint x="290" y="1021" />
              <mxPoint x="290" y="758" />
            </Array>
          </mxGeometry>
        </mxCell>
        <mxCell id="dYA03i0IP1dTVJbQFC6O-2" value="}" style="edgeLabel;html=1;align=center;verticalAlign=middle;resizable=0;points=[];fontSize=14;" parent="dYA03i0IP1dTVJbQFC6O-1" vertex="1" connectable="0">
          <mxGeometry x="0.1004" y="-10" relative="1" as="geometry">
            <mxPoint x="-80" y="128" as="offset" />
          </mxGeometry>
        </mxCell>
        <mxCell id="dYA03i0IP1dTVJbQFC6O-5" style="edgeStyle=orthogonalEdgeStyle;shape=connector;curved=1;rounded=0;orthogonalLoop=1;jettySize=auto;html=1;exitX=1;exitY=0.5;exitDx=0;exitDy=0;labelBackgroundColor=default;strokeColor=default;align=center;verticalAlign=middle;fontFamily=Helvetica;fontSize=11;fontColor=default;endArrow=classic;entryX=0.781;entryY=0.997;entryDx=0;entryDy=0;entryPerimeter=0;" parent="1" source="1_MaRXWsVEtTQD-sm3cn-207" target="Jmizhj2TeELe9FxtLMLf-30" edge="1">
          <mxGeometry relative="1" as="geometry">
            <Array as="points">
              <mxPoint x="754" y="985" />
            </Array>
            <mxPoint x="710" y="744" as="targetPoint" />
          </mxGeometry>
        </mxCell>
        <mxCell id="dYA03i0IP1dTVJbQFC6O-7" value="\, &quot;. r, t, n" style="edgeLabel;html=1;align=center;verticalAlign=middle;resizable=0;points=[];fontSize=14;fontFamily=Helvetica;fontColor=default;" parent="dYA03i0IP1dTVJbQFC6O-5" vertex="1" connectable="0">
          <mxGeometry x="-0.2681" relative="1" as="geometry">
            <mxPoint x="-34" y="55" as="offset" />
          </mxGeometry>
        </mxCell>
        <mxCell id="dYA03i0IP1dTVJbQFC6O-13" style="edgeStyle=orthogonalEdgeStyle;shape=connector;curved=1;rounded=0;orthogonalLoop=1;jettySize=auto;html=1;entryX=0.5;entryY=0;entryDx=0;entryDy=0;labelBackgroundColor=default;strokeColor=default;align=center;verticalAlign=middle;fontFamily=Helvetica;fontSize=11;fontColor=default;endArrow=classic;" parent="1" source="dYA03i0IP1dTVJbQFC6O-8" target="dYA03i0IP1dTVJbQFC6O-12" edge="1">
          <mxGeometry relative="1" as="geometry" />
        </mxCell>
        <mxCell id="dYA03i0IP1dTVJbQFC6O-14" value="{" style="edgeLabel;html=1;align=center;verticalAlign=middle;resizable=0;points=[];fontSize=14;fontFamily=Helvetica;fontColor=default;" parent="dYA03i0IP1dTVJbQFC6O-13" vertex="1" connectable="0">
          <mxGeometry x="0.3771" y="-1" relative="1" as="geometry">
            <mxPoint x="-9" y="-4" as="offset" />
          </mxGeometry>
        </mxCell>
        <mxCell id="dYA03i0IP1dTVJbQFC6O-8" value="Q20" style="ellipse;whiteSpace=wrap;html=1;aspect=fixed;" parent="1" vertex="1">
          <mxGeometry x="570" y="1034" width="50" height="50" as="geometry" />
        </mxCell>
        <mxCell id="dYA03i0IP1dTVJbQFC6O-12" value="Q21" style="ellipse;whiteSpace=wrap;html=1;aspect=fixed;" parent="1" vertex="1">
          <mxGeometry x="570" y="1114" width="50" height="50" as="geometry" />
        </mxCell>
        <mxCell id="dYA03i0IP1dTVJbQFC6O-20" style="edgeStyle=orthogonalEdgeStyle;shape=connector;curved=1;rounded=0;orthogonalLoop=1;jettySize=auto;html=1;entryX=0;entryY=0.5;entryDx=0;entryDy=0;labelBackgroundColor=default;strokeColor=default;align=center;verticalAlign=middle;fontFamily=Helvetica;fontSize=11;fontColor=default;endArrow=classic;" parent="1" source="dYA03i0IP1dTVJbQFC6O-15" target="dYA03i0IP1dTVJbQFC6O-16" edge="1">
          <mxGeometry relative="1" as="geometry">
            <Array as="points">
              <mxPoint x="700" y="1059" />
            </Array>
          </mxGeometry>
        </mxCell>
        <mxCell id="dYA03i0IP1dTVJbQFC6O-22" value="0-9, a-f, A-F" style="edgeLabel;html=1;align=center;verticalAlign=middle;resizable=0;points=[];fontSize=11;fontFamily=Helvetica;fontColor=default;" parent="dYA03i0IP1dTVJbQFC6O-20" vertex="1" connectable="0">
          <mxGeometry x="-0.3" y="-3" relative="1" as="geometry">
            <mxPoint x="-33" y="-14" as="offset" />
          </mxGeometry>
        </mxCell>
        <mxCell id="dYA03i0IP1dTVJbQFC6O-15" value="Q22" style="ellipse;whiteSpace=wrap;html=1;aspect=fixed;" parent="1" vertex="1">
          <mxGeometry x="690" y="1104" width="50" height="50" as="geometry" />
        </mxCell>
        <mxCell id="dYA03i0IP1dTVJbQFC6O-16" value="Q23" style="ellipse;whiteSpace=wrap;html=1;aspect=fixed;" parent="1" vertex="1">
          <mxGeometry x="725" y="1034" width="50" height="50" as="geometry" />
        </mxCell>
        <mxCell id="dYA03i0IP1dTVJbQFC6O-17" style="edgeStyle=orthogonalEdgeStyle;shape=connector;curved=1;rounded=0;orthogonalLoop=1;jettySize=auto;html=1;entryX=-0.02;entryY=0.426;entryDx=0;entryDy=0;entryPerimeter=0;labelBackgroundColor=default;strokeColor=default;align=center;verticalAlign=middle;fontFamily=Helvetica;fontSize=11;fontColor=default;endArrow=classic;" parent="1" source="dYA03i0IP1dTVJbQFC6O-12" target="dYA03i0IP1dTVJbQFC6O-15" edge="1">
          <mxGeometry relative="1" as="geometry" />
        </mxCell>
        <mxCell id="dYA03i0IP1dTVJbQFC6O-18" value="0-9, a-f, A-F" style="edgeLabel;html=1;align=center;verticalAlign=middle;resizable=0;points=[];fontSize=11;fontFamily=Helvetica;fontColor=default;" parent="dYA03i0IP1dTVJbQFC6O-17" vertex="1" connectable="0">
          <mxGeometry x="-0.0738" y="2" relative="1" as="geometry">
            <mxPoint x="-3" y="-22" as="offset" />
          </mxGeometry>
        </mxCell>
        <mxCell id="dYA03i0IP1dTVJbQFC6O-23" style="edgeStyle=orthogonalEdgeStyle;shape=connector;curved=1;rounded=0;orthogonalLoop=1;jettySize=auto;html=1;entryX=0.9;entryY=0.94;entryDx=0;entryDy=0;entryPerimeter=0;labelBackgroundColor=default;strokeColor=default;align=center;verticalAlign=middle;fontFamily=Helvetica;fontSize=11;fontColor=default;endArrow=classic;" parent="1" source="dYA03i0IP1dTVJbQFC6O-16" target="Jmizhj2TeELe9FxtLMLf-30" edge="1">
          <mxGeometry relative="1" as="geometry">
            <Array as="points">
              <mxPoint x="790" y="741" />
            </Array>
          </mxGeometry>
        </mxCell>
        <mxCell id="dYA03i0IP1dTVJbQFC6O-25" value="}" style="edgeLabel;html=1;align=center;verticalAlign=middle;resizable=0;points=[];fontSize=14;fontFamily=Helvetica;fontColor=default;" parent="dYA03i0IP1dTVJbQFC6O-23" vertex="1" connectable="0">
          <mxGeometry x="-0.2624" y="3" relative="1" as="geometry">
            <mxPoint x="-12" y="-74" as="offset" />
          </mxGeometry>
        </mxCell>
        <mxCell id="dYA03i0IP1dTVJbQFC6O-24" style="edgeStyle=orthogonalEdgeStyle;shape=connector;curved=1;rounded=0;orthogonalLoop=1;jettySize=auto;html=1;entryX=1.003;entryY=0.78;entryDx=0;entryDy=0;entryPerimeter=0;labelBackgroundColor=default;strokeColor=default;align=center;verticalAlign=middle;fontFamily=Helvetica;fontSize=11;fontColor=default;endArrow=classic;" parent="1" source="dYA03i0IP1dTVJbQFC6O-15" target="Jmizhj2TeELe9FxtLMLf-30" edge="1">
          <mxGeometry relative="1" as="geometry">
            <Array as="points">
              <mxPoint x="810" y="1120" />
              <mxPoint x="810" y="733" />
            </Array>
          </mxGeometry>
        </mxCell>
        <mxCell id="dYA03i0IP1dTVJbQFC6O-26" value="}" style="edgeLabel;html=1;align=center;verticalAlign=middle;resizable=0;points=[];fontSize=14;fontFamily=Helvetica;fontColor=default;" parent="dYA03i0IP1dTVJbQFC6O-24" vertex="1" connectable="0">
          <mxGeometry x="0.2916" y="12" relative="1" as="geometry">
            <mxPoint x="2" y="-30" as="offset" />
          </mxGeometry>
        </mxCell>
        <mxCell id="dYA03i0IP1dTVJbQFC6O-28" value="" style="rounded=0;whiteSpace=wrap;html=1;fontFamily=Helvetica;fontSize=11;fontColor=default;" parent="1" vertex="1">
          <mxGeometry x="5" y="1200" width="815" height="415" as="geometry" />
        </mxCell>
        <mxCell id="dYA03i0IP1dTVJbQFC6O-30" value="S&amp;nbsp;&amp;nbsp; Start" style="text;strokeColor=none;fillColor=none;align=left;verticalAlign=middle;spacingLeft=4;spacingRight=4;overflow=hidden;points=[[0,0.5],[1,0.5]];portConstraint=eastwest;rotatable=0;whiteSpace=wrap;html=1;fontSize=14;fontFamily=Helvetica;fontColor=default;" parent="1" vertex="1">
          <mxGeometry x="15" y="1210" width="190" height="30" as="geometry" />
        </mxCell>
        <mxCell id="dYA03i0IP1dTVJbQFC6O-31" value="Q13 DoubleQuote" style="text;strokeColor=none;fillColor=none;align=left;verticalAlign=middle;spacingLeft=4;spacingRight=4;overflow=hidden;points=[[0,0.5],[1,0.5]];portConstraint=eastwest;rotatable=0;whiteSpace=wrap;html=1;fontSize=14;fontFamily=Helvetica;fontColor=default;" parent="1" vertex="1">
          <mxGeometry x="600" y="1270" width="190" height="30" as="geometry" />
        </mxCell>
        <mxCell id="dYA03i0IP1dTVJbQFC6O-32" value="Q1&amp;nbsp;&amp;nbsp; LineComment" style="text;strokeColor=none;fillColor=none;align=left;verticalAlign=middle;spacingLeft=4;spacingRight=4;overflow=hidden;points=[[0,0.5],[1,0.5]];portConstraint=eastwest;rotatable=0;whiteSpace=wrap;html=1;fontSize=14;fontFamily=Helvetica;fontColor=default;" parent="1" vertex="1">
          <mxGeometry x="405" y="1300" width="200" height="30" as="geometry" />
        </mxCell>
        <mxCell id="dYA03i0IP1dTVJbQFC6O-33" value="F14 LessThan" style="text;strokeColor=none;fillColor=none;align=left;verticalAlign=middle;spacingLeft=4;spacingRight=4;overflow=hidden;points=[[0,0.5],[1,0.5]];portConstraint=eastwest;rotatable=0;whiteSpace=wrap;html=1;fontSize=14;fontFamily=Helvetica;fontColor=default;" parent="1" vertex="1">
          <mxGeometry x="197.5" y="1240" width="190" height="30" as="geometry" />
        </mxCell>
        <mxCell id="dYA03i0IP1dTVJbQFC6O-35" value="F1 DoubleColon" style="text;strokeColor=none;fillColor=none;align=left;verticalAlign=middle;spacingLeft=4;spacingRight=4;overflow=hidden;points=[[0,0.5],[1,0.5]];portConstraint=eastwest;rotatable=0;whiteSpace=wrap;html=1;fontSize=14;fontFamily=Helvetica;fontColor=default;" parent="1" vertex="1">
          <mxGeometry x="15" y="1240" width="190" height="30" as="geometry" />
        </mxCell>
        <mxCell id="dYA03i0IP1dTVJbQFC6O-36" value="Q14 BlockString" style="text;strokeColor=none;fillColor=none;align=left;verticalAlign=middle;spacingLeft=4;spacingRight=4;overflow=hidden;points=[[0,0.5],[1,0.5]];portConstraint=eastwest;rotatable=0;whiteSpace=wrap;html=1;fontSize=14;fontFamily=Helvetica;fontColor=default;" parent="1" vertex="1">
          <mxGeometry x="600" y="1300" width="190" height="30" as="geometry" />
        </mxCell>
        <mxCell id="dYA03i0IP1dTVJbQFC6O-38" value="F15 LessOrEqual" style="text;strokeColor=none;fillColor=none;align=left;verticalAlign=middle;spacingLeft=4;spacingRight=4;overflow=hidden;points=[[0,0.5],[1,0.5]];portConstraint=eastwest;rotatable=0;whiteSpace=wrap;html=1;fontSize=14;fontFamily=Helvetica;fontColor=default;" parent="1" vertex="1">
          <mxGeometry x="197.5" y="1270" width="190" height="30" as="geometry" />
        </mxCell>
        <mxCell id="dYA03i0IP1dTVJbQFC6O-39" value="&lt;div&gt;F2 Bracket_R&lt;/div&gt;" style="text;strokeColor=none;fillColor=none;align=left;verticalAlign=middle;spacingLeft=4;spacingRight=4;overflow=hidden;points=[[0,0.5],[1,0.5]];portConstraint=eastwest;rotatable=0;whiteSpace=wrap;html=1;fontSize=14;fontFamily=Helvetica;fontColor=default;" parent="1" vertex="1">
          <mxGeometry x="15" y="1270" width="190" height="30" as="geometry" />
        </mxCell>
        <mxCell id="dYA03i0IP1dTVJbQFC6O-40" value="Q16 BlockStringEnd1" style="text;strokeColor=none;fillColor=none;align=left;verticalAlign=middle;spacingLeft=4;spacingRight=4;overflow=hidden;points=[[0,0.5],[1,0.5]];portConstraint=eastwest;rotatable=0;whiteSpace=wrap;html=1;fontSize=14;fontFamily=Helvetica;fontColor=default;" parent="1" vertex="1">
          <mxGeometry x="600" y="1360" width="190" height="30" as="geometry" />
        </mxCell>
        <mxCell id="dYA03i0IP1dTVJbQFC6O-42" value="F16 MoreThan" style="text;strokeColor=none;fillColor=none;align=left;verticalAlign=middle;spacingLeft=4;spacingRight=4;overflow=hidden;points=[[0,0.5],[1,0.5]];portConstraint=eastwest;rotatable=0;whiteSpace=wrap;html=1;fontSize=14;fontFamily=Helvetica;fontColor=default;" parent="1" vertex="1">
          <mxGeometry x="197.5" y="1300" width="190" height="30" as="geometry" />
        </mxCell>
        <mxCell id="dYA03i0IP1dTVJbQFC6O-43" value="F3 Bracket_L" style="text;strokeColor=none;fillColor=none;align=left;verticalAlign=middle;spacingLeft=4;spacingRight=4;overflow=hidden;points=[[0,0.5],[1,0.5]];portConstraint=eastwest;rotatable=0;whiteSpace=wrap;html=1;fontSize=14;fontFamily=Helvetica;fontColor=default;" parent="1" vertex="1">
          <mxGeometry x="15" y="1300" width="190" height="30" as="geometry" />
        </mxCell>
        <mxCell id="dYA03i0IP1dTVJbQFC6O-44" value="Q17 BlockStringEnd2" style="text;strokeColor=none;fillColor=none;align=left;verticalAlign=middle;spacingLeft=4;spacingRight=4;overflow=hidden;points=[[0,0.5],[1,0.5]];portConstraint=eastwest;rotatable=0;whiteSpace=wrap;html=1;fontSize=14;fontFamily=Helvetica;fontColor=default;" parent="1" vertex="1">
          <mxGeometry x="600" y="1390" width="190" height="30" as="geometry" />
        </mxCell>
        <mxCell id="dYA03i0IP1dTVJbQFC6O-45" value="Q2 &amp;nbsp; QuestionMark" style="text;strokeColor=none;fillColor=none;align=left;verticalAlign=middle;spacingLeft=4;spacingRight=4;overflow=hidden;points=[[0,0.5],[1,0.5]];portConstraint=eastwest;rotatable=0;whiteSpace=wrap;html=1;fontSize=14;fontFamily=Helvetica;fontColor=default;" parent="1" vertex="1">
          <mxGeometry x="405" y="1330" width="200" height="30" as="geometry" />
        </mxCell>
        <mxCell id="dYA03i0IP1dTVJbQFC6O-46" value="F17 MoreOrEqual" style="text;strokeColor=none;fillColor=none;align=left;verticalAlign=middle;spacingLeft=4;spacingRight=4;overflow=hidden;points=[[0,0.5],[1,0.5]];portConstraint=eastwest;rotatable=0;whiteSpace=wrap;html=1;fontSize=14;fontFamily=Helvetica;fontColor=default;" parent="1" vertex="1">
          <mxGeometry x="197.5" y="1330" width="190" height="30" as="geometry" />
        </mxCell>
        <mxCell id="dYA03i0IP1dTVJbQFC6O-47" value="F4 Paren_R" style="text;strokeColor=none;fillColor=none;align=left;verticalAlign=middle;spacingLeft=4;spacingRight=4;overflow=hidden;points=[[0,0.5],[1,0.5]];portConstraint=eastwest;rotatable=0;whiteSpace=wrap;html=1;fontSize=14;fontFamily=Helvetica;fontColor=default;" parent="1" vertex="1">
          <mxGeometry x="15" y="1330" width="190" height="30" as="geometry" />
        </mxCell>
        <mxCell id="dYA03i0IP1dTVJbQFC6O-48" value="Q19 BlockStringEscape" style="text;strokeColor=none;fillColor=none;align=left;verticalAlign=middle;spacingLeft=4;spacingRight=4;overflow=hidden;points=[[0,0.5],[1,0.5]];portConstraint=eastwest;rotatable=0;whiteSpace=wrap;html=1;fontSize=14;fontFamily=Helvetica;fontColor=default;" parent="1" vertex="1">
          <mxGeometry x="600" y="1450" width="190" height="30" as="geometry" />
        </mxCell>
        <mxCell id="dYA03i0IP1dTVJbQFC6O-49" value="Q3 &amp;nbsp; NumberDoubleStart" style="text;strokeColor=none;fillColor=none;align=left;verticalAlign=middle;spacingLeft=4;spacingRight=4;overflow=hidden;points=[[0,0.5],[1,0.5]];portConstraint=eastwest;rotatable=0;whiteSpace=wrap;html=1;fontSize=14;fontFamily=Helvetica;fontColor=default;" parent="1" vertex="1">
          <mxGeometry x="405" y="1360" width="200" height="30" as="geometry" />
        </mxCell>
        <mxCell id="dYA03i0IP1dTVJbQFC6O-50" value="F18 DoubleQuestionMark" style="text;strokeColor=none;fillColor=none;align=left;verticalAlign=middle;spacingLeft=4;spacingRight=4;overflow=hidden;points=[[0,0.5],[1,0.5]];portConstraint=eastwest;rotatable=0;whiteSpace=wrap;html=1;fontSize=14;fontFamily=Helvetica;fontColor=default;" parent="1" vertex="1">
          <mxGeometry x="197.5" y="1360" width="190" height="30" as="geometry" />
        </mxCell>
        <mxCell id="dYA03i0IP1dTVJbQFC6O-51" value="F5 Paren_L" style="text;strokeColor=none;fillColor=none;align=left;verticalAlign=middle;spacingLeft=4;spacingRight=4;overflow=hidden;points=[[0,0.5],[1,0.5]];portConstraint=eastwest;rotatable=0;whiteSpace=wrap;html=1;fontSize=14;fontFamily=Helvetica;fontColor=default;" parent="1" vertex="1">
          <mxGeometry x="15" y="1360" width="190" height="30" as="geometry" />
        </mxCell>
        <mxCell id="dYA03i0IP1dTVJbQFC6O-52" value="Q20 BlockStringEscapeUnicode" style="text;strokeColor=none;fillColor=none;align=left;verticalAlign=middle;spacingLeft=4;spacingRight=4;overflow=hidden;points=[[0,0.5],[1,0.5]];portConstraint=eastwest;rotatable=0;whiteSpace=wrap;html=1;fontSize=14;fontFamily=Helvetica;fontColor=default;" parent="1" vertex="1">
          <mxGeometry x="600" y="1480" width="210" height="30" as="geometry" />
        </mxCell>
        <mxCell id="dYA03i0IP1dTVJbQFC6O-53" value="&lt;div&gt;Q4&amp;nbsp;&amp;nbsp; NumberExponentStart&lt;/div&gt;" style="text;strokeColor=none;fillColor=none;align=left;verticalAlign=middle;spacingLeft=4;spacingRight=4;overflow=hidden;points=[[0,0.5],[1,0.5]];portConstraint=eastwest;rotatable=0;whiteSpace=wrap;html=1;fontSize=14;fontFamily=Helvetica;fontColor=default;" parent="1" vertex="1">
          <mxGeometry x="405" y="1390" width="200" height="30" as="geometry" />
        </mxCell>
        <mxCell id="dYA03i0IP1dTVJbQFC6O-54" value="F19 Whitespace" style="text;strokeColor=none;fillColor=none;align=left;verticalAlign=middle;spacingLeft=4;spacingRight=4;overflow=hidden;points=[[0,0.5],[1,0.5]];portConstraint=eastwest;rotatable=0;whiteSpace=wrap;html=1;fontSize=14;fontFamily=Helvetica;fontColor=default;" parent="1" vertex="1">
          <mxGeometry x="197.5" y="1390" width="190" height="30" as="geometry" />
        </mxCell>
        <mxCell id="dYA03i0IP1dTVJbQFC6O-55" value="F6 At" style="text;strokeColor=none;fillColor=none;align=left;verticalAlign=middle;spacingLeft=4;spacingRight=4;overflow=hidden;points=[[0,0.5],[1,0.5]];portConstraint=eastwest;rotatable=0;whiteSpace=wrap;html=1;fontSize=14;fontFamily=Helvetica;fontColor=default;" parent="1" vertex="1">
          <mxGeometry x="15" y="1390" width="190" height="30" as="geometry" />
        </mxCell>
        <mxCell id="dYA03i0IP1dTVJbQFC6O-56" value="Q21 BlockStringEscapeHexStart" style="text;strokeColor=none;fillColor=none;align=left;verticalAlign=middle;spacingLeft=4;spacingRight=4;overflow=hidden;points=[[0,0.5],[1,0.5]];portConstraint=eastwest;rotatable=0;whiteSpace=wrap;html=1;fontSize=13;fontFamily=Helvetica;fontColor=default;" parent="1" vertex="1">
          <mxGeometry x="600" y="1510" width="210" height="30" as="geometry" />
        </mxCell>
        <mxCell id="dYA03i0IP1dTVJbQFC6O-57" value="Q5 &amp;nbsp; NumberExponentSign" style="text;strokeColor=none;fillColor=none;align=left;verticalAlign=middle;spacingLeft=4;spacingRight=4;overflow=hidden;points=[[0,0.5],[1,0.5]];portConstraint=eastwest;rotatable=0;whiteSpace=wrap;html=1;fontSize=14;fontFamily=Helvetica;fontColor=default;" parent="1" vertex="1">
          <mxGeometry x="405" y="1420" width="200" height="30" as="geometry" />
        </mxCell>
        <mxCell id="dYA03i0IP1dTVJbQFC6O-58" value="F20 Identifier" style="text;strokeColor=none;fillColor=none;align=left;verticalAlign=middle;spacingLeft=4;spacingRight=4;overflow=hidden;points=[[0,0.5],[1,0.5]];portConstraint=eastwest;rotatable=0;whiteSpace=wrap;html=1;fontSize=14;fontFamily=Helvetica;fontColor=default;" parent="1" vertex="1">
          <mxGeometry x="197.5" y="1420" width="190" height="30" as="geometry" />
        </mxCell>
        <mxCell id="dYA03i0IP1dTVJbQFC6O-59" value="F7 Plus" style="text;strokeColor=none;fillColor=none;align=left;verticalAlign=middle;spacingLeft=4;spacingRight=4;overflow=hidden;points=[[0,0.5],[1,0.5]];portConstraint=eastwest;rotatable=0;whiteSpace=wrap;html=1;fontSize=14;fontFamily=Helvetica;fontColor=default;" parent="1" vertex="1">
          <mxGeometry x="15" y="1420" width="190" height="30" as="geometry" />
        </mxCell>
        <mxCell id="dYA03i0IP1dTVJbQFC6O-60" value="Q22 BlockStringEscapeHex1" style="text;strokeColor=none;fillColor=none;align=left;verticalAlign=middle;spacingLeft=4;spacingRight=4;overflow=hidden;points=[[0,0.5],[1,0.5]];portConstraint=eastwest;rotatable=0;whiteSpace=wrap;html=1;fontSize=14;fontFamily=Helvetica;fontColor=default;" parent="1" vertex="1">
          <mxGeometry x="600" y="1540" width="205" height="30" as="geometry" />
        </mxCell>
        <mxCell id="dYA03i0IP1dTVJbQFC6O-61" value="Q6 &amp;nbsp; StringStart" style="text;strokeColor=none;fillColor=none;align=left;verticalAlign=middle;spacingLeft=4;spacingRight=4;overflow=hidden;points=[[0,0.5],[1,0.5]];portConstraint=eastwest;rotatable=0;whiteSpace=wrap;html=1;fontSize=14;fontFamily=Helvetica;fontColor=default;" parent="1" vertex="1">
          <mxGeometry x="405" y="1450" width="200" height="30" as="geometry" />
        </mxCell>
        <mxCell id="dYA03i0IP1dTVJbQFC6O-62" value="F21 MaybeNilType" style="text;strokeColor=none;fillColor=none;align=left;verticalAlign=middle;spacingLeft=4;spacingRight=4;overflow=hidden;points=[[0,0.5],[1,0.5]];portConstraint=eastwest;rotatable=0;whiteSpace=wrap;html=1;fontSize=14;fontFamily=Helvetica;fontColor=default;" parent="1" vertex="1">
          <mxGeometry x="197.5" y="1450" width="190" height="30" as="geometry" />
        </mxCell>
        <mxCell id="dYA03i0IP1dTVJbQFC6O-63" value="F8 Minus" style="text;strokeColor=none;fillColor=none;align=left;verticalAlign=middle;spacingLeft=4;spacingRight=4;overflow=hidden;points=[[0,0.5],[1,0.5]];portConstraint=eastwest;rotatable=0;whiteSpace=wrap;html=1;fontSize=14;fontFamily=Helvetica;fontColor=default;" parent="1" vertex="1">
          <mxGeometry x="15" y="1450" width="190" height="30" as="geometry" />
        </mxCell>
        <mxCell id="dYA03i0IP1dTVJbQFC6O-64" value="Q23 BlockStringEscapeHex2" style="text;strokeColor=none;fillColor=none;align=left;verticalAlign=middle;spacingLeft=4;spacingRight=4;overflow=hidden;points=[[0,0.5],[1,0.5]];portConstraint=eastwest;rotatable=0;whiteSpace=wrap;html=1;fontSize=14;fontFamily=Helvetica;fontColor=default;" parent="1" vertex="1">
          <mxGeometry x="600" y="1570" width="195" height="30" as="geometry" />
        </mxCell>
        <mxCell id="dYA03i0IP1dTVJbQFC6O-65" value="Q7 &amp;nbsp; LineString" style="text;strokeColor=none;fillColor=none;align=left;verticalAlign=middle;spacingLeft=4;spacingRight=4;overflow=hidden;points=[[0,0.5],[1,0.5]];portConstraint=eastwest;rotatable=0;whiteSpace=wrap;html=1;fontSize=14;fontFamily=Helvetica;fontColor=default;" parent="1" vertex="1">
          <mxGeometry x="405" y="1480" width="200" height="30" as="geometry" />
        </mxCell>
        <mxCell id="dYA03i0IP1dTVJbQFC6O-66" value="F22 Number" style="text;strokeColor=none;fillColor=none;align=left;verticalAlign=middle;spacingLeft=4;spacingRight=4;overflow=hidden;points=[[0,0.5],[1,0.5]];portConstraint=eastwest;rotatable=0;whiteSpace=wrap;html=1;fontSize=14;fontFamily=Helvetica;fontColor=default;" parent="1" vertex="1">
          <mxGeometry x="197.5" y="1480" width="190" height="30" as="geometry" />
        </mxCell>
        <mxCell id="dYA03i0IP1dTVJbQFC6O-67" value="F9 ArrowRight" style="text;strokeColor=none;fillColor=none;align=left;verticalAlign=middle;spacingLeft=4;spacingRight=4;overflow=hidden;points=[[0,0.5],[1,0.5]];portConstraint=eastwest;rotatable=0;whiteSpace=wrap;html=1;fontSize=14;fontFamily=Helvetica;fontColor=default;" parent="1" vertex="1">
          <mxGeometry x="15" y="1480" width="190" height="30" as="geometry" />
        </mxCell>
        <mxCell id="dYA03i0IP1dTVJbQFC6O-69" value="Q8 &amp;nbsp; LineStringEscape" style="text;strokeColor=none;fillColor=none;align=left;verticalAlign=middle;spacingLeft=4;spacingRight=4;overflow=hidden;points=[[0,0.5],[1,0.5]];portConstraint=eastwest;rotatable=0;whiteSpace=wrap;html=1;fontSize=14;fontFamily=Helvetica;fontColor=default;" parent="1" vertex="1">
          <mxGeometry x="405" y="1510" width="200" height="30" as="geometry" />
        </mxCell>
        <mxCell id="dYA03i0IP1dTVJbQFC6O-70" value="F23 NumberDouble" style="text;strokeColor=none;fillColor=none;align=left;verticalAlign=middle;spacingLeft=4;spacingRight=4;overflow=hidden;points=[[0,0.5],[1,0.5]];portConstraint=eastwest;rotatable=0;whiteSpace=wrap;html=1;fontSize=14;fontFamily=Helvetica;fontColor=default;" parent="1" vertex="1">
          <mxGeometry x="197.5" y="1510" width="190" height="30" as="geometry" />
        </mxCell>
        <mxCell id="dYA03i0IP1dTVJbQFC6O-71" value="F10 Multiply" style="text;strokeColor=none;fillColor=none;align=left;verticalAlign=middle;spacingLeft=4;spacingRight=4;overflow=hidden;points=[[0,0.5],[1,0.5]];portConstraint=eastwest;rotatable=0;whiteSpace=wrap;html=1;fontSize=14;fontFamily=Helvetica;fontColor=default;" parent="1" vertex="1">
          <mxGeometry x="15" y="1510" width="190" height="30" as="geometry" />
        </mxCell>
        <mxCell id="dYA03i0IP1dTVJbQFC6O-73" value="Q9 &amp;nbsp; &lt;font style=&quot;font-size: 13px;&quot;&gt;LineStringEscapeUnicode&lt;/font&gt;" style="text;strokeColor=none;fillColor=none;align=left;verticalAlign=middle;spacingLeft=4;spacingRight=4;overflow=hidden;points=[[0,0.5],[1,0.5]];portConstraint=eastwest;rotatable=0;whiteSpace=wrap;html=1;fontSize=14;fontFamily=Helvetica;fontColor=default;" parent="1" vertex="1">
          <mxGeometry x="405" y="1540" width="200" height="30" as="geometry" />
        </mxCell>
        <mxCell id="dYA03i0IP1dTVJbQFC6O-74" value="F24 NumberExponent" style="text;strokeColor=none;fillColor=none;align=left;verticalAlign=middle;spacingLeft=4;spacingRight=4;overflow=hidden;points=[[0,0.5],[1,0.5]];portConstraint=eastwest;rotatable=0;whiteSpace=wrap;html=1;fontSize=14;fontFamily=Helvetica;fontColor=default;" parent="1" vertex="1">
          <mxGeometry x="197.5" y="1540" width="190" height="30" as="geometry" />
        </mxCell>
        <mxCell id="dYA03i0IP1dTVJbQFC6O-75" value="F11 Divide" style="text;strokeColor=none;fillColor=none;align=left;verticalAlign=middle;spacingLeft=4;spacingRight=4;overflow=hidden;points=[[0,0.5],[1,0.5]];portConstraint=eastwest;rotatable=0;whiteSpace=wrap;html=1;fontSize=14;fontFamily=Helvetica;fontColor=default;" parent="1" vertex="1">
          <mxGeometry x="15" y="1540" width="190" height="30" as="geometry" />
        </mxCell>
        <mxCell id="dYA03i0IP1dTVJbQFC6O-77" value="Q10 LineStringEscapeHexStart" style="text;strokeColor=none;fillColor=none;align=left;verticalAlign=middle;spacingLeft=4;spacingRight=4;overflow=hidden;points=[[0,0.5],[1,0.5]];portConstraint=eastwest;rotatable=0;whiteSpace=wrap;html=1;fontSize=13;fontFamily=Helvetica;fontColor=default;" parent="1" vertex="1">
          <mxGeometry x="405" y="1570" width="200" height="30" as="geometry" />
        </mxCell>
        <mxCell id="dYA03i0IP1dTVJbQFC6O-78" value="F25 StringEnd" style="text;strokeColor=none;fillColor=none;align=left;verticalAlign=middle;spacingLeft=4;spacingRight=4;overflow=hidden;points=[[0,0.5],[1,0.5]];portConstraint=eastwest;rotatable=0;whiteSpace=wrap;html=1;fontSize=14;fontFamily=Helvetica;fontColor=default;" parent="1" vertex="1">
          <mxGeometry x="197.5" y="1570" width="190" height="30" as="geometry" />
        </mxCell>
        <mxCell id="dYA03i0IP1dTVJbQFC6O-79" value="F12 EqualSign" style="text;strokeColor=none;fillColor=none;align=left;verticalAlign=middle;spacingLeft=4;spacingRight=4;overflow=hidden;points=[[0,0.5],[1,0.5]];portConstraint=eastwest;rotatable=0;whiteSpace=wrap;html=1;fontSize=14;fontFamily=Helvetica;fontColor=default;" parent="1" vertex="1">
          <mxGeometry x="15" y="1570" width="190" height="30" as="geometry" />
        </mxCell>
        <mxCell id="dYA03i0IP1dTVJbQFC6O-81" value="Q11 LineStringExcapeHex1" style="text;strokeColor=none;fillColor=none;align=left;verticalAlign=middle;spacingLeft=4;spacingRight=4;overflow=hidden;points=[[0,0.5],[1,0.5]];portConstraint=eastwest;rotatable=0;whiteSpace=wrap;html=1;fontSize=14;fontFamily=Helvetica;fontColor=default;" parent="1" vertex="1">
          <mxGeometry x="600" y="1210" width="200" height="30" as="geometry" />
        </mxCell>
        <mxCell id="dYA03i0IP1dTVJbQFC6O-83" value="F13 DoubleEqualSign" style="text;strokeColor=none;fillColor=none;align=left;verticalAlign=middle;spacingLeft=4;spacingRight=4;overflow=hidden;points=[[0,0.5],[1,0.5]];portConstraint=eastwest;rotatable=0;whiteSpace=wrap;html=1;fontSize=14;fontFamily=Helvetica;fontColor=default;" parent="1" vertex="1">
          <mxGeometry x="197.5" y="1210" width="190" height="30" as="geometry" />
        </mxCell>
        <mxCell id="dYA03i0IP1dTVJbQFC6O-85" value="Q12 LineStringExcapeHex2" style="text;strokeColor=none;fillColor=none;align=left;verticalAlign=middle;spacingLeft=4;spacingRight=4;overflow=hidden;points=[[0,0.5],[1,0.5]];portConstraint=eastwest;rotatable=0;whiteSpace=wrap;html=1;fontSize=14;fontFamily=Helvetica;fontColor=default;" parent="1" vertex="1">
          <mxGeometry x="600" y="1240" width="200" height="30" as="geometry" />
        </mxCell>
        <mxCell id="dYA03i0IP1dTVJbQFC6O-88" style="edgeStyle=orthogonalEdgeStyle;shape=connector;curved=1;rounded=0;orthogonalLoop=1;jettySize=auto;html=1;exitX=0.5;exitY=0;exitDx=0;exitDy=0;entryX=0.986;entryY=0.292;entryDx=0;entryDy=0;entryPerimeter=0;labelBackgroundColor=default;strokeColor=default;align=center;verticalAlign=middle;fontFamily=Helvetica;fontSize=11;fontColor=default;endArrow=classic;" parent="1" source="Jmizhj2TeELe9FxtLMLf-30" target="Jmizhj2TeELe9FxtLMLf-30" edge="1">
          <mxGeometry relative="1" as="geometry">
            <mxPoint x="710" y="694" as="sourcePoint" />
            <Array as="points">
              <mxPoint x="740" y="645" />
              <mxPoint x="785" y="645" />
              <mxPoint x="785" y="709" />
            </Array>
          </mxGeometry>
        </mxCell>
        <mxCell id="dYA03i0IP1dTVJbQFC6O-92" style="edgeStyle=orthogonalEdgeStyle;shape=connector;curved=1;rounded=0;orthogonalLoop=1;jettySize=auto;html=1;exitX=0.5;exitY=1;exitDx=0;exitDy=0;entryX=0.986;entryY=0.615;entryDx=0;entryDy=0;entryPerimeter=0;labelBackgroundColor=default;strokeColor=default;align=center;verticalAlign=middle;fontFamily=Helvetica;fontSize=11;fontColor=default;endArrow=classic;" parent="1" source="1_MaRXWsVEtTQD-sm3cn-140" target="1_MaRXWsVEtTQD-sm3cn-140" edge="1">
          <mxGeometry relative="1" as="geometry">
            <Array as="points">
              <mxPoint x="105" y="910" />
              <mxPoint x="145" y="910" />
              <mxPoint x="145" y="871" />
            </Array>
          </mxGeometry>
        </mxCell>
        <mxCell id="dYA03i0IP1dTVJbQFC6O-93" value="0-9" style="edgeLabel;html=1;align=center;verticalAlign=middle;resizable=0;points=[];fontSize=14;fontFamily=Helvetica;fontColor=default;" parent="dYA03i0IP1dTVJbQFC6O-92" vertex="1" connectable="0">
          <mxGeometry x="-0.4142" y="2" relative="1" as="geometry">
            <mxPoint x="3" y="12" as="offset" />
          </mxGeometry>
        </mxCell>
        <mxCell id="dYA03i0IP1dTVJbQFC6O-94" style="edgeStyle=orthogonalEdgeStyle;shape=connector;curved=1;rounded=0;orthogonalLoop=1;jettySize=auto;html=1;exitX=0;exitY=1;exitDx=0;exitDy=0;entryX=0.8;entryY=1;entryDx=0;entryDy=0;entryPerimeter=0;labelBackgroundColor=default;strokeColor=default;align=center;verticalAlign=middle;fontFamily=Helvetica;fontSize=11;fontColor=default;endArrow=classic;" parent="1" source="1_MaRXWsVEtTQD-sm3cn-150" target="1_MaRXWsVEtTQD-sm3cn-150" edge="1">
          <mxGeometry relative="1" as="geometry">
            <Array as="points">
              <mxPoint x="227" y="944" />
              <mxPoint x="260" y="944" />
            </Array>
          </mxGeometry>
        </mxCell>
        <mxCell id="dYA03i0IP1dTVJbQFC6O-95" value="0-9" style="edgeLabel;html=1;align=center;verticalAlign=middle;resizable=0;points=[];fontSize=14;fontFamily=Helvetica;fontColor=default;" parent="dYA03i0IP1dTVJbQFC6O-94" vertex="1" connectable="0">
          <mxGeometry x="0.0171" y="-2" relative="1" as="geometry">
            <mxPoint x="-1" y="8" as="offset" />
          </mxGeometry>
        </mxCell>
        <mxCell id="dYA03i0IP1dTVJbQFC6O-96" value="Lexikální analyzátor" style="text;html=1;strokeColor=none;fillColor=none;align=center;verticalAlign=middle;whiteSpace=wrap;rounded=0;fontSize=27;fontFamily=Helvetica;fontColor=default;fontStyle=1" parent="1" vertex="1">
          <mxGeometry x="10" y="40" width="830" height="30" as="geometry" />
        </mxCell>
        <mxCell id="WVxyuoYJNxcmObWx2lrR-3" style="edgeStyle=orthogonalEdgeStyle;rounded=0;orthogonalLoop=1;jettySize=auto;html=1;entryX=0.073;entryY=0.687;entryDx=0;entryDy=0;entryPerimeter=0;curved=1;" parent="1" target="cOMLW2albzwi6cBCAeZk-16" edge="1">
          <mxGeometry relative="1" as="geometry">
            <mxPoint x="410" y="435" as="sourcePoint" />
            <Array as="points">
              <mxPoint x="410" y="288" />
            </Array>
          </mxGeometry>
        </mxCell>
        <mxCell id="WVxyuoYJNxcmObWx2lrR-4" value="-" style="edgeLabel;html=1;align=center;verticalAlign=middle;resizable=0;points=[];fontSize=14;" parent="WVxyuoYJNxcmObWx2lrR-3" vertex="1" connectable="0">
          <mxGeometry x="-0.8436" relative="1" as="geometry">
            <mxPoint x="65" y="-130" as="offset" />
          </mxGeometry>
        </mxCell>
        <mxCell id="WVxyuoYJNxcmObWx2lrR-5" value="F27" style="ellipse;shape=doubleEllipse;whiteSpace=wrap;html=1;aspect=fixed;fontFamily=Helvetica;fontSize=11;fontColor=default;" parent="1" vertex="1">
          <mxGeometry x="655" y="144" width="50" height="50" as="geometry" />
        </mxCell>
        <mxCell id="WVxyuoYJNxcmObWx2lrR-6" value="F10" style="ellipse;shape=doubleEllipse;whiteSpace=wrap;html=1;aspect=fixed;fontFamily=Helvetica;fontSize=11;fontColor=default;" parent="1" vertex="1">
          <mxGeometry x="550" y="200" width="50" height="50" as="geometry" />
        </mxCell>
        <mxCell id="WVxyuoYJNxcmObWx2lrR-7" style="edgeStyle=orthogonalEdgeStyle;rounded=0;orthogonalLoop=1;jettySize=auto;html=1;entryX=0;entryY=0.5;entryDx=0;entryDy=0;curved=1;exitX=0.296;exitY=0.064;exitDx=0;exitDy=0;exitPerimeter=0;" parent="1" source="Jmizhj2TeELe9FxtLMLf-1" target="WVxyuoYJNxcmObWx2lrR-6" edge="1">
          <mxGeometry relative="1" as="geometry">
            <Array as="points">
              <mxPoint x="405" y="225" />
            </Array>
          </mxGeometry>
        </mxCell>
        <mxCell id="WVxyuoYJNxcmObWx2lrR-9" value="*" style="edgeLabel;html=1;align=center;verticalAlign=middle;resizable=0;points=[];fontSize=14;" parent="WVxyuoYJNxcmObWx2lrR-7" vertex="1" connectable="0">
          <mxGeometry x="0.4813" y="2" relative="1" as="geometry">
            <mxPoint x="28" y="2" as="offset" />
          </mxGeometry>
        </mxCell>
        <mxCell id="WVxyuoYJNxcmObWx2lrR-8" style="edgeStyle=orthogonalEdgeStyle;rounded=0;orthogonalLoop=1;jettySize=auto;html=1;entryX=-0.004;entryY=0.602;entryDx=0;entryDy=0;entryPerimeter=0;curved=1;" parent="1" source="WVxyuoYJNxcmObWx2lrR-6" target="WVxyuoYJNxcmObWx2lrR-5" edge="1">
          <mxGeometry relative="1" as="geometry">
            <Array as="points">
              <mxPoint x="585" y="174" />
            </Array>
          </mxGeometry>
        </mxCell>
        <mxCell id="WVxyuoYJNxcmObWx2lrR-10" value="/" style="edgeLabel;html=1;align=center;verticalAlign=middle;resizable=0;points=[];fontSize=14;" parent="WVxyuoYJNxcmObWx2lrR-8" vertex="1" connectable="0">
          <mxGeometry x="0.4785" relative="1" as="geometry">
            <mxPoint x="2" y="-10" as="offset" />
          </mxGeometry>
        </mxCell>
        <mxCell id="WVxyuoYJNxcmObWx2lrR-13" value="F26 BlockCommentStart" style="text;strokeColor=none;fillColor=none;align=left;verticalAlign=middle;spacingLeft=4;spacingRight=4;overflow=hidden;points=[[0,0.5],[1,0.5]];portConstraint=eastwest;rotatable=0;whiteSpace=wrap;html=1;fontSize=14;fontFamily=Helvetica;fontColor=default;" parent="1" vertex="1">
          <mxGeometry x="405" y="1210" width="190" height="30" as="geometry" />
        </mxCell>
        <mxCell id="WVxyuoYJNxcmObWx2lrR-14" value="F27 BlockCommentEnd" style="text;strokeColor=none;fillColor=none;align=left;verticalAlign=middle;spacingLeft=4;spacingRight=4;overflow=hidden;points=[[0,0.5],[1,0.5]];portConstraint=eastwest;rotatable=0;whiteSpace=wrap;html=1;fontSize=14;fontFamily=Helvetica;fontColor=default;" parent="1" vertex="1">
          <mxGeometry x="405" y="1240" width="190" height="30" as="geometry" />
        </mxCell>
        <mxCell id="KZ-Oyi-OiSotZPvz-CzS-15" style="edgeStyle=orthogonalEdgeStyle;shape=connector;curved=1;rounded=0;orthogonalLoop=1;jettySize=auto;html=1;entryX=0.5;entryY=1;entryDx=0;entryDy=0;labelBackgroundColor=default;strokeColor=default;align=center;verticalAlign=middle;fontFamily=Helvetica;fontSize=11;fontColor=default;endArrow=classic;exitX=0.5;exitY=0;exitDx=0;exitDy=0;" parent="1" source="KZ-Oyi-OiSotZPvz-CzS-1" target="Jmizhj2TeELe9FxtLMLf-32" edge="1">
          <mxGeometry relative="1" as="geometry" />
        </mxCell>
        <mxCell id="KZ-Oyi-OiSotZPvz-CzS-16" value="&quot;" style="edgeLabel;html=1;align=center;verticalAlign=middle;resizable=0;points=[];fontSize=14;fontFamily=Helvetica;fontColor=default;" parent="KZ-Oyi-OiSotZPvz-CzS-15" vertex="1" connectable="0">
          <mxGeometry x="0.2282" y="-3" relative="1" as="geometry">
            <mxPoint x="9" y="-7" as="offset" />
          </mxGeometry>
        </mxCell>
        <mxCell id="KZ-Oyi-OiSotZPvz-CzS-1" value="Q18" style="ellipse;whiteSpace=wrap;html=1;aspect=fixed;" parent="1" vertex="1">
          <mxGeometry x="510" y="934" width="50" height="50" as="geometry" />
        </mxCell>
        <mxCell id="KZ-Oyi-OiSotZPvz-CzS-13" style="edgeStyle=orthogonalEdgeStyle;shape=connector;curved=1;rounded=0;orthogonalLoop=1;jettySize=auto;html=1;entryX=0.257;entryY=0.045;entryDx=0;entryDy=0;labelBackgroundColor=default;strokeColor=default;align=center;verticalAlign=middle;fontFamily=Helvetica;fontSize=11;fontColor=default;endArrow=classic;entryPerimeter=0;" parent="1" source="KZ-Oyi-OiSotZPvz-CzS-2" target="Jmizhj2TeELe9FxtLMLf-30" edge="1">
          <mxGeometry relative="1" as="geometry">
            <Array as="points">
              <mxPoint x="728" y="680" />
            </Array>
          </mxGeometry>
        </mxCell>
        <mxCell id="KZ-Oyi-OiSotZPvz-CzS-14" value="EOL" style="edgeLabel;html=1;align=center;verticalAlign=middle;resizable=0;points=[];fontSize=14;fontFamily=Helvetica;fontColor=default;" parent="KZ-Oyi-OiSotZPvz-CzS-13" vertex="1" connectable="0">
          <mxGeometry x="-0.1641" y="1" relative="1" as="geometry">
            <mxPoint x="-3" y="-9" as="offset" />
          </mxGeometry>
        </mxCell>
        <mxCell id="KZ-Oyi-OiSotZPvz-CzS-2" value="Q14" style="ellipse;whiteSpace=wrap;html=1;aspect=fixed;" parent="1" vertex="1">
          <mxGeometry x="625" y="660" width="50" height="50" as="geometry" />
        </mxCell>
        <mxCell id="1_MaRXWsVEtTQD-sm3cn-168" value="Q10" style="ellipse;whiteSpace=wrap;html=1;aspect=fixed;" parent="1" vertex="1">
          <mxGeometry x="414" y="1010" width="50" height="50" as="geometry" />
        </mxCell>
        <mxCell id="KZ-Oyi-OiSotZPvz-CzS-7" style="edgeStyle=orthogonalEdgeStyle;shape=connector;curved=1;rounded=0;orthogonalLoop=1;jettySize=auto;html=1;exitX=0.5;exitY=1;exitDx=0;exitDy=0;entryX=0.966;entryY=0.746;entryDx=0;entryDy=0;entryPerimeter=0;labelBackgroundColor=default;strokeColor=default;align=center;verticalAlign=middle;fontFamily=Helvetica;fontSize=11;fontColor=default;endArrow=classic;" parent="1" source="1_MaRXWsVEtTQD-sm3cn-161" target="1_MaRXWsVEtTQD-sm3cn-168" edge="1">
          <mxGeometry relative="1" as="geometry">
            <Array as="points">
              <mxPoint x="490" y="970" />
              <mxPoint x="490" y="1047" />
            </Array>
          </mxGeometry>
        </mxCell>
        <mxCell id="KZ-Oyi-OiSotZPvz-CzS-20" value="{" style="edgeLabel;html=1;align=center;verticalAlign=middle;resizable=0;points=[];fontSize=14;fontFamily=Helvetica;fontColor=default;" parent="KZ-Oyi-OiSotZPvz-CzS-7" vertex="1" connectable="0">
          <mxGeometry x="-0.1008" y="-1" relative="1" as="geometry">
            <mxPoint x="-9" y="2" as="offset" />
          </mxGeometry>
        </mxCell>
        <mxCell id="KZ-Oyi-OiSotZPvz-CzS-9" style="edgeStyle=orthogonalEdgeStyle;shape=connector;curved=1;rounded=0;orthogonalLoop=1;jettySize=auto;html=1;exitX=0.5;exitY=1;exitDx=0;exitDy=0;entryX=0.429;entryY=-0.023;entryDx=0;entryDy=0;entryPerimeter=0;labelBackgroundColor=default;strokeColor=default;align=center;verticalAlign=middle;fontFamily=Helvetica;fontSize=11;fontColor=default;endArrow=classic;" parent="1" source="1_MaRXWsVEtTQD-sm3cn-193" target="1_MaRXWsVEtTQD-sm3cn-194" edge="1">
          <mxGeometry relative="1" as="geometry">
            <Array as="points">
              <mxPoint x="561" y="800" />
              <mxPoint x="561" y="853" />
            </Array>
          </mxGeometry>
        </mxCell>
        <mxCell id="KZ-Oyi-OiSotZPvz-CzS-10" value="&quot;" style="edgeLabel;html=1;align=center;verticalAlign=middle;resizable=0;points=[];fontSize=14;fontFamily=Helvetica;fontColor=default;" parent="KZ-Oyi-OiSotZPvz-CzS-9" vertex="1" connectable="0">
          <mxGeometry x="-0.3112" relative="1" as="geometry">
            <mxPoint x="-6" y="40" as="offset" />
          </mxGeometry>
        </mxCell>
        <mxCell id="I7BS8_ouBcblTHkLXQxY-9" style="edgeStyle=orthogonalEdgeStyle;shape=connector;curved=1;rounded=0;orthogonalLoop=1;jettySize=auto;html=1;exitX=1;exitY=1;exitDx=0;exitDy=0;entryX=1;entryY=0.5;entryDx=0;entryDy=0;labelBackgroundColor=default;strokeColor=default;align=center;verticalAlign=middle;fontFamily=Helvetica;fontSize=14;fontColor=default;endArrow=classic;" parent="1" source="1_MaRXWsVEtTQD-sm3cn-193" target="1_MaRXWsVEtTQD-sm3cn-193" edge="1">
          <mxGeometry relative="1" as="geometry">
            <Array as="points">
              <mxPoint x="608" y="825" />
              <mxPoint x="670" y="825" />
              <mxPoint x="670" y="775" />
            </Array>
          </mxGeometry>
        </mxCell>
        <mxCell id="I7BS8_ouBcblTHkLXQxY-10" value="\t, 0x20" style="edgeLabel;html=1;align=center;verticalAlign=middle;resizable=0;points=[];fontSize=12;fontFamily=Helvetica;fontColor=default;" parent="I7BS8_ouBcblTHkLXQxY-9" vertex="1" connectable="0">
          <mxGeometry x="0.7286" y="2" relative="1" as="geometry">
            <mxPoint x="-1" y="23" as="offset" />
          </mxGeometry>
        </mxCell>
        <mxCell id="I7BS8_ouBcblTHkLXQxY-11" style="edgeStyle=orthogonalEdgeStyle;shape=connector;curved=1;rounded=0;orthogonalLoop=1;jettySize=auto;html=1;entryX=0.254;entryY=0.926;entryDx=0;entryDy=0;entryPerimeter=0;labelBackgroundColor=default;strokeColor=default;align=center;verticalAlign=middle;fontFamily=Helvetica;fontSize=14;fontColor=default;endArrow=classic;exitX=0.5;exitY=1;exitDx=0;exitDy=0;" parent="1" source="KZ-Oyi-OiSotZPvz-CzS-1" target="Jmizhj2TeELe9FxtLMLf-30" edge="1">
          <mxGeometry relative="1" as="geometry">
            <Array as="points">
              <mxPoint x="535" y="990" />
              <mxPoint x="625" y="990" />
              <mxPoint x="625" y="895" />
              <mxPoint x="728" y="895" />
              <mxPoint x="728" y="740" />
            </Array>
          </mxGeometry>
        </mxCell>
        <mxCell id="I7BS8_ouBcblTHkLXQxY-12" value="Q18 BlockStringEnd3" style="text;strokeColor=none;fillColor=none;align=left;verticalAlign=middle;spacingLeft=4;spacingRight=4;overflow=hidden;points=[[0,0.5],[1,0.5]];portConstraint=eastwest;rotatable=0;whiteSpace=wrap;html=1;fontSize=14;fontFamily=Helvetica;fontColor=default;" parent="1" vertex="1">
          <mxGeometry x="600" y="1420" width="190" height="30" as="geometry" />
        </mxCell>
        <mxCell id="UnipSPoBlDGwuC0cnpaX-2" value="F28" style="ellipse;shape=doubleEllipse;whiteSpace=wrap;html=1;aspect=fixed;fontFamily=Helvetica;fontSize=11;fontColor=default;" parent="1" vertex="1">
          <mxGeometry x="375" y="240" width="50" height="50" as="geometry" />
        </mxCell>
        <mxCell id="UnipSPoBlDGwuC0cnpaX-5" value="F28 Comma" style="text;strokeColor=none;fillColor=none;align=left;verticalAlign=middle;spacingLeft=4;spacingRight=4;overflow=hidden;points=[[0,0.5],[1,0.5]];portConstraint=eastwest;rotatable=0;whiteSpace=wrap;html=1;fontSize=14;fontFamily=Helvetica;fontColor=default;" parent="1" vertex="1">
          <mxGeometry x="405" y="1270" width="190" height="30" as="geometry" />
        </mxCell>
        <mxCell id="OEOnV4DprRoW8HHAa5pC-1" value="Q15 BlockString" style="text;strokeColor=none;fillColor=none;align=left;verticalAlign=middle;spacingLeft=4;spacingRight=4;overflow=hidden;points=[[0,0.5],[1,0.5]];portConstraint=eastwest;rotatable=0;whiteSpace=wrap;html=1;fontSize=14;fontFamily=Helvetica;fontColor=default;" parent="1" vertex="1">
          <mxGeometry x="600" y="1330" width="190" height="30" as="geometry" />
        </mxCell>
        <mxCell id="nABAx9ZL_z2mT0_abt5D-4" style="edgeStyle=orthogonalEdgeStyle;rounded=0;orthogonalLoop=1;jettySize=auto;html=1;entryX=0;entryY=0.5;entryDx=0;entryDy=0;curved=1;" edge="1" parent="1" source="OEOnV4DprRoW8HHAa5pC-2" target="nABAx9ZL_z2mT0_abt5D-2">
          <mxGeometry relative="1" as="geometry">
            <Array as="points">
              <mxPoint x="170" y="1770" />
            </Array>
          </mxGeometry>
        </mxCell>
        <mxCell id="nABAx9ZL_z2mT0_abt5D-9" value="/" style="edgeLabel;html=1;align=center;verticalAlign=middle;resizable=0;points=[];fontSize=14;fontFamily=Helvetica;fontColor=default;" vertex="1" connectable="0" parent="nABAx9ZL_z2mT0_abt5D-4">
          <mxGeometry x="0.2623" y="-9" relative="1" as="geometry">
            <mxPoint x="-9" y="-9" as="offset" />
          </mxGeometry>
        </mxCell>
        <mxCell id="nABAx9ZL_z2mT0_abt5D-15" style="edgeStyle=orthogonalEdgeStyle;shape=connector;curved=1;rounded=0;orthogonalLoop=1;jettySize=auto;html=1;labelBackgroundColor=default;strokeColor=default;align=center;verticalAlign=middle;fontFamily=Helvetica;fontSize=14;fontColor=default;endArrow=classic;entryX=0;entryY=0.5;entryDx=0;entryDy=0;" edge="1" parent="1" source="OEOnV4DprRoW8HHAa5pC-2" target="nABAx9ZL_z2mT0_abt5D-16">
          <mxGeometry relative="1" as="geometry">
            <mxPoint x="340" y="1845" as="targetPoint" />
          </mxGeometry>
        </mxCell>
        <mxCell id="nABAx9ZL_z2mT0_abt5D-17" value="EOF" style="edgeLabel;html=1;align=center;verticalAlign=middle;resizable=0;points=[];fontSize=14;fontFamily=Helvetica;fontColor=default;" vertex="1" connectable="0" parent="nABAx9ZL_z2mT0_abt5D-15">
          <mxGeometry x="0.3935" y="-2" relative="1" as="geometry">
            <mxPoint x="2" y="-12" as="offset" />
          </mxGeometry>
        </mxCell>
        <mxCell id="OEOnV4DprRoW8HHAa5pC-2" value="S" style="ellipse;whiteSpace=wrap;html=1;aspect=fixed;" parent="1" vertex="1">
          <mxGeometry x="145" y="1820" width="50" height="50" as="geometry" />
        </mxCell>
        <mxCell id="OEOnV4DprRoW8HHAa5pC-3" value="F1" style="ellipse;shape=doubleEllipse;whiteSpace=wrap;html=1;aspect=fixed;fontFamily=Helvetica;fontSize=11;fontColor=default;" parent="1" vertex="1">
          <mxGeometry x="355" y="1745" width="50" height="50" as="geometry" />
        </mxCell>
        <mxCell id="nABAx9ZL_z2mT0_abt5D-1" value="" style="endArrow=classic;html=1;rounded=0;" edge="1" parent="1">
          <mxGeometry width="50" height="50" relative="1" as="geometry">
            <mxPoint x="100" y="1910" as="sourcePoint" />
            <mxPoint x="150" y="1860" as="targetPoint" />
          </mxGeometry>
        </mxCell>
        <mxCell id="nABAx9ZL_z2mT0_abt5D-7" style="edgeStyle=orthogonalEdgeStyle;shape=connector;curved=1;rounded=0;orthogonalLoop=1;jettySize=auto;html=1;entryX=0;entryY=0.5;entryDx=0;entryDy=0;labelBackgroundColor=default;strokeColor=default;align=center;verticalAlign=middle;fontFamily=Helvetica;fontSize=11;fontColor=default;endArrow=classic;" edge="1" parent="1" source="nABAx9ZL_z2mT0_abt5D-2" target="OEOnV4DprRoW8HHAa5pC-3">
          <mxGeometry relative="1" as="geometry" />
        </mxCell>
        <mxCell id="nABAx9ZL_z2mT0_abt5D-11" value="*" style="edgeLabel;html=1;align=center;verticalAlign=middle;resizable=0;points=[];fontSize=14;fontFamily=Helvetica;fontColor=default;" vertex="1" connectable="0" parent="nABAx9ZL_z2mT0_abt5D-7">
          <mxGeometry x="-0.2457" y="2" relative="1" as="geometry">
            <mxPoint x="1" y="-8" as="offset" />
          </mxGeometry>
        </mxCell>
        <mxCell id="nABAx9ZL_z2mT0_abt5D-13" style="edgeStyle=orthogonalEdgeStyle;shape=connector;curved=1;rounded=0;orthogonalLoop=1;jettySize=auto;html=1;exitX=0;exitY=1;exitDx=0;exitDy=0;entryX=1;entryY=0;entryDx=0;entryDy=0;labelBackgroundColor=default;strokeColor=default;align=center;verticalAlign=middle;fontFamily=Helvetica;fontSize=14;fontColor=default;endArrow=classic;" edge="1" parent="1" source="nABAx9ZL_z2mT0_abt5D-2" target="OEOnV4DprRoW8HHAa5pC-2">
          <mxGeometry relative="1" as="geometry">
            <Array as="points">
              <mxPoint x="237" y="1827" />
            </Array>
          </mxGeometry>
        </mxCell>
        <mxCell id="nABAx9ZL_z2mT0_abt5D-2" value="Q1" style="ellipse;whiteSpace=wrap;html=1;aspect=fixed;" vertex="1" parent="1">
          <mxGeometry x="230" y="1745" width="50" height="50" as="geometry" />
        </mxCell>
        <mxCell id="nABAx9ZL_z2mT0_abt5D-8" style="edgeStyle=orthogonalEdgeStyle;shape=connector;curved=1;rounded=0;orthogonalLoop=1;jettySize=auto;html=1;labelBackgroundColor=default;strokeColor=default;align=center;verticalAlign=middle;fontFamily=Helvetica;fontSize=11;fontColor=default;endArrow=classic;" edge="1" parent="1" source="nABAx9ZL_z2mT0_abt5D-3" target="nABAx9ZL_z2mT0_abt5D-6">
          <mxGeometry relative="1" as="geometry" />
        </mxCell>
        <mxCell id="nABAx9ZL_z2mT0_abt5D-12" value="*" style="edgeLabel;html=1;align=center;verticalAlign=middle;resizable=0;points=[];fontSize=14;fontFamily=Helvetica;fontColor=default;" vertex="1" connectable="0" parent="nABAx9ZL_z2mT0_abt5D-8">
          <mxGeometry x="-0.1265" relative="1" as="geometry">
            <mxPoint x="14" y="15" as="offset" />
          </mxGeometry>
        </mxCell>
        <mxCell id="nABAx9ZL_z2mT0_abt5D-3" value="Q2" style="ellipse;whiteSpace=wrap;html=1;aspect=fixed;" vertex="1" parent="1">
          <mxGeometry x="230" y="1880" width="50" height="50" as="geometry" />
        </mxCell>
        <mxCell id="nABAx9ZL_z2mT0_abt5D-5" style="edgeStyle=orthogonalEdgeStyle;rounded=0;orthogonalLoop=1;jettySize=auto;html=1;entryX=0;entryY=0.623;entryDx=0;entryDy=0;entryPerimeter=0;curved=1;" edge="1" parent="1" source="OEOnV4DprRoW8HHAa5pC-2" target="nABAx9ZL_z2mT0_abt5D-3">
          <mxGeometry relative="1" as="geometry">
            <Array as="points">
              <mxPoint x="170" y="1911" />
            </Array>
          </mxGeometry>
        </mxCell>
        <mxCell id="nABAx9ZL_z2mT0_abt5D-10" value="*" style="edgeLabel;html=1;align=center;verticalAlign=middle;resizable=0;points=[];fontSize=14;fontFamily=Helvetica;fontColor=default;" vertex="1" connectable="0" parent="nABAx9ZL_z2mT0_abt5D-5">
          <mxGeometry x="0.1757" y="7" relative="1" as="geometry">
            <mxPoint x="-18" y="1" as="offset" />
          </mxGeometry>
        </mxCell>
        <mxCell id="nABAx9ZL_z2mT0_abt5D-6" value="F2" style="ellipse;shape=doubleEllipse;whiteSpace=wrap;html=1;aspect=fixed;fontFamily=Helvetica;fontSize=11;fontColor=default;" vertex="1" parent="1">
          <mxGeometry x="350" y="1880" width="50" height="50" as="geometry" />
        </mxCell>
        <mxCell id="nABAx9ZL_z2mT0_abt5D-14" style="edgeStyle=orthogonalEdgeStyle;shape=connector;curved=1;rounded=0;orthogonalLoop=1;jettySize=auto;html=1;exitX=0;exitY=0;exitDx=0;exitDy=0;entryX=0.934;entryY=0.863;entryDx=0;entryDy=0;entryPerimeter=0;labelBackgroundColor=default;strokeColor=default;align=center;verticalAlign=middle;fontFamily=Helvetica;fontSize=14;fontColor=default;endArrow=classic;" edge="1" parent="1" source="nABAx9ZL_z2mT0_abt5D-3" target="OEOnV4DprRoW8HHAa5pC-2">
          <mxGeometry relative="1" as="geometry">
            <Array as="points">
              <mxPoint x="237" y="1863" />
            </Array>
          </mxGeometry>
        </mxCell>
        <mxCell id="nABAx9ZL_z2mT0_abt5D-16" value="F3" style="ellipse;shape=doubleEllipse;whiteSpace=wrap;html=1;aspect=fixed;fontFamily=Helvetica;fontSize=11;fontColor=default;" vertex="1" parent="1">
          <mxGeometry x="350" y="1820" width="50" height="50" as="geometry" />
        </mxCell>
        <mxCell id="nABAx9ZL_z2mT0_abt5D-18" style="edgeStyle=orthogonalEdgeStyle;shape=connector;curved=1;rounded=0;orthogonalLoop=1;jettySize=auto;html=1;exitX=1;exitY=1;exitDx=0;exitDy=0;entryX=0.293;entryY=0.1;entryDx=0;entryDy=0;entryPerimeter=0;labelBackgroundColor=default;strokeColor=default;align=center;verticalAlign=middle;fontFamily=Helvetica;fontSize=14;fontColor=default;endArrow=classic;" edge="1" parent="1" source="nABAx9ZL_z2mT0_abt5D-2" target="nABAx9ZL_z2mT0_abt5D-16">
          <mxGeometry relative="1" as="geometry" />
        </mxCell>
        <mxCell id="nABAx9ZL_z2mT0_abt5D-20" value="EOF" style="edgeLabel;html=1;align=center;verticalAlign=middle;resizable=0;points=[];fontSize=14;fontFamily=Helvetica;fontColor=default;" vertex="1" connectable="0" parent="nABAx9ZL_z2mT0_abt5D-18">
          <mxGeometry x="-0.098" y="-6" relative="1" as="geometry">
            <mxPoint x="-21" y="6" as="offset" />
          </mxGeometry>
        </mxCell>
        <mxCell id="nABAx9ZL_z2mT0_abt5D-19" style="edgeStyle=orthogonalEdgeStyle;shape=connector;curved=1;rounded=0;orthogonalLoop=1;jettySize=auto;html=1;exitX=1;exitY=0;exitDx=0;exitDy=0;entryX=0.24;entryY=0.9;entryDx=0;entryDy=0;entryPerimeter=0;labelBackgroundColor=default;strokeColor=default;align=center;verticalAlign=middle;fontFamily=Helvetica;fontSize=14;fontColor=default;endArrow=classic;" edge="1" parent="1" source="nABAx9ZL_z2mT0_abt5D-3" target="nABAx9ZL_z2mT0_abt5D-16">
          <mxGeometry relative="1" as="geometry">
            <Array as="points">
              <mxPoint x="273" y="1880" />
              <mxPoint x="362" y="1880" />
            </Array>
          </mxGeometry>
        </mxCell>
        <mxCell id="nABAx9ZL_z2mT0_abt5D-21" value="EOF" style="edgeLabel;html=1;align=center;verticalAlign=middle;resizable=0;points=[];fontSize=14;fontFamily=Helvetica;fontColor=default;" vertex="1" connectable="0" parent="nABAx9ZL_z2mT0_abt5D-19">
          <mxGeometry x="-0.0332" y="1" relative="1" as="geometry">
            <mxPoint x="-4" y="-9" as="offset" />
          </mxGeometry>
        </mxCell>
        <mxCell id="nABAx9ZL_z2mT0_abt5D-22" value="" style="rounded=0;whiteSpace=wrap;html=1;labelBackgroundColor=default;align=center;verticalAlign=middle;fontFamily=Helvetica;fontSize=14;fontColor=default;fillColor=default;gradientColor=none;" vertex="1" parent="1">
          <mxGeometry x="460" y="1785" width="310" height="111" as="geometry" />
        </mxCell>
        <mxCell id="nABAx9ZL_z2mT0_abt5D-23" value="S&amp;nbsp; Start" style="text;strokeColor=none;fillColor=none;align=left;verticalAlign=middle;spacingLeft=4;spacingRight=4;overflow=hidden;points=[[0,0.5],[1,0.5]];portConstraint=eastwest;rotatable=0;whiteSpace=wrap;html=1;fontSize=14;fontFamily=Helvetica;fontColor=default;" vertex="1" parent="1">
          <mxGeometry x="470" y="1791" width="105" height="30" as="geometry" />
        </mxCell>
        <mxCell id="nABAx9ZL_z2mT0_abt5D-24" value="Q1 Divide" style="text;strokeColor=none;fillColor=none;align=left;verticalAlign=middle;spacingLeft=4;spacingRight=4;overflow=hidden;points=[[0,0.5],[1,0.5]];portConstraint=eastwest;rotatable=0;whiteSpace=wrap;html=1;fontSize=14;fontFamily=Helvetica;fontColor=default;" vertex="1" parent="1">
          <mxGeometry x="470" y="1821" width="105" height="30" as="geometry" />
        </mxCell>
        <mxCell id="nABAx9ZL_z2mT0_abt5D-25" value="Q2 Multiply" style="text;strokeColor=none;fillColor=none;align=left;verticalAlign=middle;spacingLeft=4;spacingRight=4;overflow=hidden;points=[[0,0.5],[1,0.5]];portConstraint=eastwest;rotatable=0;whiteSpace=wrap;html=1;fontSize=14;fontFamily=Helvetica;fontColor=default;" vertex="1" parent="1">
          <mxGeometry x="470" y="1851" width="105" height="30" as="geometry" />
        </mxCell>
        <mxCell id="nABAx9ZL_z2mT0_abt5D-26" value="F1 BlockCommentStart" style="text;strokeColor=none;fillColor=none;align=left;verticalAlign=middle;spacingLeft=4;spacingRight=4;overflow=hidden;points=[[0,0.5],[1,0.5]];portConstraint=eastwest;rotatable=0;whiteSpace=wrap;html=1;fontSize=14;fontFamily=Helvetica;fontColor=default;" vertex="1" parent="1">
          <mxGeometry x="605" y="1791" width="165" height="30" as="geometry" />
        </mxCell>
        <mxCell id="nABAx9ZL_z2mT0_abt5D-27" value="F2 BlockCommentEnd" style="text;strokeColor=none;fillColor=none;align=left;verticalAlign=middle;spacingLeft=4;spacingRight=4;overflow=hidden;points=[[0,0.5],[1,0.5]];portConstraint=eastwest;rotatable=0;whiteSpace=wrap;html=1;fontSize=14;fontFamily=Helvetica;fontColor=default;" vertex="1" parent="1">
          <mxGeometry x="605" y="1821" width="165" height="30" as="geometry" />
        </mxCell>
        <mxCell id="nABAx9ZL_z2mT0_abt5D-29" value="F3 EOF" style="text;strokeColor=none;fillColor=none;align=left;verticalAlign=middle;spacingLeft=4;spacingRight=4;overflow=hidden;points=[[0,0.5],[1,0.5]];portConstraint=eastwest;rotatable=0;whiteSpace=wrap;html=1;fontSize=14;fontFamily=Helvetica;fontColor=default;" vertex="1" parent="1">
          <mxGeometry x="605" y="1851" width="165" height="30" as="geometry" />
        </mxCell>
        <mxCell id="nABAx9ZL_z2mT0_abt5D-34" style="edgeStyle=orthogonalEdgeStyle;shape=connector;curved=1;rounded=0;orthogonalLoop=1;jettySize=auto;html=1;exitX=0;exitY=0.5;exitDx=0;exitDy=0;entryX=0;entryY=0;entryDx=0;entryDy=0;labelBackgroundColor=default;strokeColor=default;align=center;verticalAlign=middle;fontFamily=Helvetica;fontSize=14;fontColor=default;endArrow=classic;" edge="1" parent="1" source="OEOnV4DprRoW8HHAa5pC-2" target="OEOnV4DprRoW8HHAa5pC-2">
          <mxGeometry relative="1" as="geometry">
            <Array as="points">
              <mxPoint x="110" y="1845" />
              <mxPoint x="110" y="1800" />
              <mxPoint x="152" y="1800" />
            </Array>
          </mxGeometry>
        </mxCell>
        <mxCell id="nABAx9ZL_z2mT0_abt5D-36" value="Σ - {/, *, EOL}" style="edgeLabel;html=1;align=center;verticalAlign=middle;resizable=0;points=[];fontSize=14;fontFamily=Helvetica;fontColor=default;" vertex="1" connectable="0" parent="nABAx9ZL_z2mT0_abt5D-34">
          <mxGeometry x="0.1803" relative="1" as="geometry">
            <mxPoint y="-15" as="offset" />
          </mxGeometry>
        </mxCell>
        <mxCell id="nABAx9ZL_z2mT0_abt5D-37" value="Block Comment " style="text;html=1;strokeColor=none;fillColor=none;align=center;verticalAlign=middle;whiteSpace=wrap;rounded=0;fontSize=28;fontFamily=Helvetica;fontColor=default;fontStyle=1" vertex="1" parent="1">
          <mxGeometry y="1675" width="825" height="30" as="geometry" />
        </mxCell>
        <mxCell id="nABAx9ZL_z2mT0_abt5D-38" value="" style="endArrow=classic;html=1;rounded=0;labelBackgroundColor=default;strokeColor=default;align=center;verticalAlign=middle;fontFamily=Helvetica;fontSize=14;fontColor=default;shape=connector;curved=1;entryX=0.8;entryY=0.92;entryDx=0;entryDy=0;entryPerimeter=0;" edge="1" parent="1" target="Jmizhj2TeELe9FxtLMLf-1">
          <mxGeometry width="50" height="50" relative="1" as="geometry">
            <mxPoint x="440" y="540" as="sourcePoint" />
            <mxPoint x="480" y="495" as="targetPoint" />
          </mxGeometry>
        </mxCell>
      </root>
    </mxGraphModel>
  </diagram>
</mxfile>
